<?xml version="1.0" encoding="UTF-8" standalone="no"?>
<!-- Created with Inkscape (http://www.inkscape.org/) -->

<svg
   width="105mm"
   height="105mm"
   viewBox="0 0 105 105"
   version="1.1"
   id="svg711"
   inkscape:version="1.1.1 (1:1.1+202109281949+c3084ef5ed)"
   sodipodi:docname="白姑大山路標架設.svg"
   xmlns:inkscape="http://www.inkscape.org/namespaces/inkscape"
   xmlns:sodipodi="http://sodipodi.sourceforge.net/DTD/sodipodi-0.dtd"
   xmlns="http://www.w3.org/2000/svg"
   xmlns:svg="http://www.w3.org/2000/svg">
  <sodipodi:namedview
     id="namedview713"
     pagecolor="#ffffff"
     bordercolor="#666666"
     borderopacity="1.0"
     inkscape:pageshadow="2"
     inkscape:pageopacity="0.0"
     inkscape:pagecheckerboard="0"
     inkscape:document-units="mm"
     showgrid="false"
     width="100mm"
     inkscape:zoom="2"
     inkscape:cx="206"
     inkscape:cy="209.5"
     inkscape:window-width="1920"
     inkscape:window-height="1043"
     inkscape:window-x="1920"
     inkscape:window-y="0"
     inkscape:window-maximized="1"
     inkscape:current-layer="layer1" />
  <defs
     id="defs708">
    <rect
       x="112.06502"
       y="148.5193"
       width="228.16777"
       height="17.155391"
       id="rect60071" />
    <rect
       x="112.06502"
       y="148.5193"
       width="251.0392"
       height="15.571979"
       id="rect60071-7" />
    <rect
       x="112.06502"
       y="148.5193"
       width="130.48669"
       height="47.000436"
       id="rect60071-3" />
    <rect
       x="112.06502"
       y="148.5193"
       width="185.42109"
       height="34.257718"
       id="rect60071-3-8" />
    <rect
       x="112.06502"
       y="148.5193"
       width="102.78843"
       height="39.228832"
       id="rect60071-3-8-1" />
    <rect
       x="112.06502"
       y="148.5193"
       width="61.973736"
       height="39.497326"
       id="rect60071-3-8-1-6" />
  </defs>
  <g
     inkscape:label="Layer 1"
     inkscape:groupmode="layer"
     id="layer1"
     style="display:inline">
    <path
       d="M 1.5882895,50.378644 50.378646,1.5882876 c 1.16676,-1.166707 3.075887,-1.166707 4.242673,0 L 103.41165,50.378644 c 1.16679,1.166786 1.16679,3.075887 0,4.242673 L 54.621319,103.41167 c -1.166786,1.16676 -3.075913,1.16676 -4.242673,0 L 1.5882895,54.621317 c -1.166706,-1.166786 -1.166706,-3.075887 0,-4.242673 z"
       style="fill:#ffffff;fill-rule:evenodd;stroke:#1b1918;stroke-width:0.149992;stroke-linecap:butt;stroke-linejoin:miter;stroke-dasharray:none"
       id="path138" />
    <path
       d="M 13.807144,50.887808 50.88781,13.807142 c 0.886725,-0.886725 2.337673,-0.886725 3.224398,0 L 91.1929,50.887808 c 0.886725,0.886725 0.886725,2.337673 0,3.224398 L 54.112208,91.192898 c -0.886725,0.886724 -2.337673,0.886724 -3.224398,0 L 13.807144,54.112206 c -0.886724,-0.886725 -0.886724,-2.337673 0,-3.224398 z"
       style="fill:#ffec00;fill-rule:evenodd;stroke-width:0.264583"
       id="path140" />
    <path
       d="m 52.500022,16.463188 c 0.310648,0 0.562478,0.251857 0.562478,0.562504 0,0.310648 -0.25183,0.562504 -0.562478,0.562504 -0.310647,0 -0.562504,-0.251856 -0.562504,-0.562504 0,-0.310647 0.251857,-0.562504 0.562504,-0.562504 z"
       style="fill:#b1b3b4;fill-rule:evenodd;stroke:#1b1918;stroke-width:0.05715;stroke-linecap:butt;stroke-linejoin:miter;stroke-dasharray:none"
       id="path144" />
    <path
       d="m 53.055409,84.074257 v 2.799688 c 0.0048,0.0408 0.0071,0.08271 0.0071,0.125333 0,0.433732 -0.251063,0.78748 -0.558932,0.78748 -0.307869,0 -0.558959,-0.353748 -0.558959,-0.78748 h -0.0071 v -2.925021 c 0,-0.433758 0.25109,-0.78748 0.558959,-0.78748 0.307869,0 0.558932,0.353722 0.558932,0.78748 z"
       style="display:inline;fill:#c5c7c8;fill-rule:evenodd;stroke:#1b1918;stroke-width:0.05715;stroke-linecap:butt;stroke-linejoin:miter;stroke-dasharray:none"
       id="path172" />
    <text
       xml:space="preserve"
       style="font-size:3.175px;line-height:1.25;font-family:'Noto Sans CJK TC';-inkscape-font-specification:'Noto Sans CJK TC';letter-spacing:0px;word-spacing:0px;stroke-width:0.264583"
       x="48.845406"
       y="26.810415"
       id="text7281"
       transform="rotate(45)"><tspan
         style="font-size:3.175px;stroke-width:0.264583"
         x="48.845406"
         y="26.810415"
         id="tspan7283"
         sodipodi:role="line">林務局、中華民國山岳協會合製</tspan></text>
    <text
       xml:space="preserve"
       style="font-size:3.175px;line-height:1.25;font-family:'Noto Sans CJK TC';-inkscape-font-specification:'Noto Sans CJK TC';text-align:center;letter-spacing:0px;word-spacing:0px;text-anchor:middle;display:inline;stroke-width:0.264583"
       x="3.9373424"
       y="101.11851"
       id="text7281-8"
       transform="rotate(-45)"><tspan
         style="font-size:3.175px;text-align:center;text-anchor:middle;stroke-width:0.264583"
         x="3.9373426"
         y="101.11851"
         id="tspan14524"
         sodipodi:role="line">請珍惜國家公共資源</tspan></text>
    <text
       xml:space="preserve"
       transform="matrix(0.26458333,0,0,0.26458333,-7.3208222,1.748638)"
       id="text60069"
       style="font-size:12px;line-height:1.25;font-family:'Noto Sans CJK TC';-inkscape-font-specification:'Noto Sans CJK TC';text-align:center;letter-spacing:0px;word-spacing:0px;white-space:pre;shape-inside:url(#rect60071)"
       x="114.27578"
       y="0"><tspan
         x="196.14849"
         y="160.57953"
         id="tspan4206">分段第一行</tspan></text>
    <text
       xml:space="preserve"
       transform="matrix(0.26458333,0,0,0.26458333,-10.346477,6.1643768)"
       id="text60069-5"
       style="font-size:12px;line-height:1.25;font-family:'Noto Sans CJK TC';-inkscape-font-specification:'Noto Sans CJK TC';text-align:center;letter-spacing:0px;word-spacing:0px;white-space:pre;shape-inside:url(#rect60071-7);display:inline"
       x="166.67967"
       y="0"><tspan
         x="207.58404"
         y="160.57953"
         id="tspan4208">分段第二行</tspan></text>
    <text
       xml:space="preserve"
       transform="matrix(0.26458333,0,0,0.26458333,5.5972316,-12.167409)"
       id="text60069-8"
       style="font-size:37.3333px;line-height:1.25;font-family:'Noto Sans CJK TC';-inkscape-font-specification:'Noto Sans CJK TC';text-align:center;letter-spacing:0px;word-spacing:0px;white-space:pre;shape-inside:url(#rect60071-3);display:inline"
       x="98.5438"
       y="0"><tspan
         x="116.73446"
         y="186.0395"
         id="tspan4212"><tspan
           style="font-weight:bold"
           id="tspan4210">SM400</tspan></tspan></text>
    <text
       xml:space="preserve"
       transform="matrix(0.26458333,0,0,0.26458333,-1.6695779,15.349263)"
       id="text60069-8-3"
       style="font-size:26.6667px;line-height:1.25;font-family:'Noto Sans CJK TC';-inkscape-font-specification:'Noto Sans CJK TC';text-align:center;letter-spacing:0px;word-spacing:0px;white-space:pre;shape-inside:url(#rect60071-3-8);display:inline"
       x="98.5438"
       y="0"><tspan
         x="151.44209"
         y="175.31957"
         id="tspan4216"><tspan
           style="font-weight:bold"
           id="tspan4214">地標名稱</tspan></tspan></text>
    <text
       xml:space="preserve"
       transform="matrix(0.26458333,0,0,0.26458333,9.2133695,25.403435)"
       id="text60069-8-3-8"
       style="font-size:32px;line-height:1.25;font-family:'Noto Sans CJK TC';-inkscape-font-specification:'Noto Sans CJK TC';text-align:center;letter-spacing:0px;word-spacing:0px;white-space:pre;shape-inside:url(#rect60071-3-8-1);display:inline"
       x="98.5438"
       y="0"><tspan
         x="131.45905"
         y="180.67953"
         id="tspan4220"><tspan
           style="font-weight:bold"
           id="tspan4218">里程</tspan></tspan></text>
    <text
       xml:space="preserve"
       transform="matrix(0.26458333,0,0,0.26458333,14.63607,35.986771)"
       id="text60069-8-3-8-4"
       style="font-size:18.6667px;line-height:1.25;font-family:'Noto Sans CJK TC';-inkscape-font-specification:'Noto Sans CJK TC';text-align:center;letter-spacing:0px;word-spacing:0px;white-space:pre;shape-inside:url(#rect60071-3-8-1-6);display:inline"
       x="98.5438"
       y="0"><tspan
         x="132.05709"
         y="167.27957"
         id="tspan4224"><tspan
           style="font-weight:bold"
           id="tspan4222">86</tspan></tspan></text>
    <rect
       style="opacity:1;fill:#000000;stroke:none;stroke-width:1.32292;stroke-linejoin:round;stroke-dasharray:2.64583, 1.32292"
       id="rect105957"
       width="13.39806"
       height="0.44479766"
       x="45.800972"
       y="74.702095" />
  </g>
</svg>
