<?xml version="1.0" encoding="UTF-8" standalone="no"?>
<!-- Created with Inkscape (http://www.inkscape.org/) -->

<svg
   width="112.171mm"
   height="100.223mm"
   viewBox="0 0 112.171 100.223"
   version="1.1"
   id="svg4201"
   inkscape:version="1.3 (1:1.3+202307231459+0e150ed6c4)"
   sodipodi:docname="YM151_.svg"
   xmlns:inkscape="http://www.inkscape.org/namespaces/inkscape"
   xmlns:sodipodi="http://sodipodi.sourceforge.net/DTD/sodipodi-0.dtd"
   xmlns="http://www.w3.org/2000/svg"
   xmlns:svg="http://www.w3.org/2000/svg">
  <sodipodi:namedview
     id="namedview4203"
     pagecolor="#ffffff"
     bordercolor="#666666"
     borderopacity="1.0"
     inkscape:pageshadow="2"
     inkscape:pageopacity="0.0"
     inkscape:pagecheckerboard="0"
     inkscape:document-units="mm"
     showgrid="false"
     width="112.171mm"
     inkscape:zoom="1.5500842"
     inkscape:cx="213.53679"
     inkscape:cy="216.76242"
     inkscape:window-width="1848"
     inkscape:window-height="1016"
     inkscape:window-x="72"
     inkscape:window-y="27"
     inkscape:window-maximized="1"
     inkscape:current-layer="layer5"
     inkscape:showpageshadow="2"
     inkscape:deskcolor="#d1d1d1"
     showguides="false" />
  <defs
     id="defs4198">
    <rect
       x="43.8815"
       y="328.35831"
       width="236.74212"
       height="17.017803"
       id="rect51847" />
    <rect
       x="112.06502"
       y="148.5193"
       width="228.16777"
       height="17.155392"
       id="rect60071" />
    <rect
       x="112.06502"
       y="148.5193"
       width="251.0392"
       height="15.571979"
       id="rect60071-7" />
    <rect
       x="112.06502"
       y="148.5193"
       width="130.48669"
       height="47.000435"
       id="rect60071-3" />
    <rect
       x="112.06502"
       y="148.5193"
       width="185.4211"
       height="34.257717"
       id="rect60071-3-8" />
    <rect
       x="112.06502"
       y="148.5193"
       width="102.78843"
       height="39.228832"
       id="rect60071-3-8-1" />
    <rect
       x="112.06502"
       y="148.5193"
       width="61.973736"
       height="39.497326"
       id="rect60071-3-8-1-6" />
    <rect
       x="112.06502"
       y="148.5193"
       width="228.16777"
       height="17.155392"
       id="rect60071-0" />
    <rect
       x="112.06502"
       y="148.5193"
       width="251.0392"
       height="15.571979"
       id="rect60071-7-9" />
    <rect
       x="112.06502"
       y="148.5193"
       width="194.94459"
       height="31.785346"
       id="rect60071-3-6" />
    <rect
       x="112.06502"
       y="148.5193"
       width="221.31774"
       height="33.073106"
       id="rect60071-3-8-3" />
    <rect
       x="112.06502"
       y="148.5193"
       width="102.53479"
       height="45.107831"
       id="rect60071-3-8-1-8" />
    <rect
       x="112.06502"
       y="148.5193"
       width="61.973736"
       height="39.497326"
       id="rect60071-3-8-1-6-5" />
    <rect
       x="43.8815"
       y="328.35831"
       width="229.75603"
       height="17.26886"
       id="rect51847-4" />
    <rect
       x="112.06502"
       y="148.5193"
       width="194.9446"
       height="31.785345"
       id="rect60071-3-6-6" />
  </defs>
  <g
     inkscape:label="Layer 1"
     inkscape:groupmode="layer"
     id="layer1"
     style="display:inline">
    <path
       d="m 4.0883064,50.134871 c 0,0.552097 -0.447675,0.999772 -0.9997722,0.999772 -0.55245,0 -1.000125,-0.447675 -1.000125,-0.999772 0,-0.552097 0.447675,-1.000125 1.000125,-1.000125 0.5520972,0 0.9997722,0.448028 0.9997722,1.000125"
       style="fill:#000000;fill-opacity:1;fill-rule:evenodd;stroke:none;stroke-width:0.352778"
       id="path43" />
    <path
       d="m 110.08854,50.134871 c 0,0.552097 -0.44803,0.999772 -0.99977,0.999772 -0.55245,0 -1.00048,-0.447675 -1.00048,-0.999772 0,-0.552097 0.44803,-1.000125 1.00048,-1.000125 0.55174,0 0.99977,0.448028 0.99977,1.000125"
       style="fill:#000000;fill-opacity:1;fill-rule:evenodd;stroke:none;stroke-width:0.352778"
       id="path47" />
    <path
       d="M 0.08819444,100.13491 V 0.13440665 H 1.0879666"
       style="fill:none;stroke:#000000;stroke-width:0.176389;stroke-linecap:butt;stroke-linejoin:miter;stroke-miterlimit:10;stroke-dasharray:none;stroke-opacity:1"
       id="path51" />
    <path
       d="M 112.0828,100.13491 V 0.13440665 h -0.99977"
       style="fill:none;stroke:#000000;stroke-width:0.176389;stroke-linecap:butt;stroke-linejoin:miter;stroke-miterlimit:10;stroke-dasharray:none;stroke-opacity:1"
       id="path51-2" />
    <path
       d="m 112.17144,100.09995 h -1.03011"
       style="fill:#ffffff;fill-opacity:1;fill-rule:evenodd;stroke:#000000;stroke-width:0.200025;stroke-linecap:butt;stroke-linejoin:miter;stroke-miterlimit:22.926;stroke-dasharray:none;stroke-opacity:1"
       id="path63" />
    <path
       d="M 1.1713284,100.09995 H 0.14121731"
       style="fill:#ffffff;fill-opacity:1;fill-rule:evenodd;stroke:#000000;stroke-width:0.200025;stroke-linecap:butt;stroke-linejoin:miter;stroke-miterlimit:22.926;stroke-dasharray:none;stroke-opacity:1"
       id="path67" />
    <path
       d="m 18.087997,85.095108 0,-69.919848 c -1e-6,-1.672166 1.368425,-3.040239 3.040239,-3.040239 l 69.919847,2e-6 c 1.672518,3.52e-4 3.040238,1.368072 3.040239,3.040239 l 3e-6,69.919849 c 3.53e-4,1.672167 -1.367719,3.040239 -3.040239,3.040239 l -69.919849,-2e-6 c -1.671816,-3.54e-4 -3.039886,-1.368072 -3.04024,-3.04024"
       style="fill:#ff66ff;fill-opacity:1;fill-rule:evenodd;stroke:none;stroke-width:0.353;stroke-miterlimit:22.926;stroke-dasharray:none"
       id="path603"
       inkscape:label="background_color" />
  </g>
  <g
     inkscape:groupmode="layer"
     id="layer2"
     inkscape:label="Layer 2">
    <text
       xml:space="preserve"
       transform="matrix(0.24684943,-0.24684943,0.24684943,0.24684943,-45.533423,60.103909)"
       id="text60069"
       style="font-style:normal;font-variant:normal;font-weight:normal;font-stretch:normal;font-size:11.116px;line-height:1.25;font-family:'Noto Sans CJK TC';-inkscape-font-specification:'Noto Sans CJK TC, Normal';font-variant-ligatures:normal;font-variant-caps:normal;font-variant-numeric:normal;font-variant-east-asian:normal;text-align:center;letter-spacing:0px;word-spacing:0px;white-space:pre;shape-inside:url(#rect60071-0);display:inline;stroke-width:0.757906"
       x="114.27578"
       y="0"
       inkscape:label="segment_line_1"><tspan
         x="198.35849"
         y="159.69111"
         id="tspan13">分段第一行</tspan></text>
    <text
       xml:space="preserve"
       transform="matrix(0.24684943,-0.24684943,0.24684943,0.24684943,-44.236511,67.046538)"
       id="text60069-5"
       style="font-style:normal;font-variant:normal;font-weight:normal;font-stretch:normal;font-size:11.116px;line-height:1.25;font-family:'Noto Sans CJK TC';-inkscape-font-specification:'Noto Sans CJK TC, Normal';font-variant-ligatures:normal;font-variant-caps:normal;font-variant-numeric:normal;font-variant-east-asian:normal;text-align:center;letter-spacing:0px;word-spacing:0px;white-space:pre;shape-inside:url(#rect60071-7-9);display:inline;stroke-width:0.757906"
       x="166.67967"
       y="0"
       inkscape:label="segment_line_2"><tspan
         x="209.79404"
         y="159.69111"
         id="tspan14">分段第二行</tspan></text>
    <text
       xml:space="preserve"
       transform="matrix(0.24684943,-0.24684943,0.24684943,0.24684943,-49.752966,47.782071)"
       id="text60069-8"
       style="font-style:normal;font-variant:normal;font-weight:bold;font-stretch:normal;font-size:23.2425px;line-height:1.25;font-family:'Noto Sans CJK TC';-inkscape-font-specification:'Noto Sans CJK TC, Bold';font-variant-ligatures:normal;font-variant-caps:normal;font-variant-numeric:normal;font-variant-east-asian:normal;text-align:center;letter-spacing:0px;word-spacing:0px;white-space:pre;shape-inside:url(#rect60071-3-6);display:inline;stroke-width:0.757906"
       x="98.5438"
       y="0"
       inkscape:label="trail_name"><tspan
         x="163.0522"
         y="171.87824"
         id="tspan15">路線名稱</tspan></text>
    <text
       xml:space="preserve"
       transform="matrix(0.24684943,-0.24684943,0.24684943,0.24684943,-56.488162,41.046875)"
       id="text60069-8-7"
       style="font-size:24.253px;line-height:1.25;font-family:'Noto Sans CJK TC';-inkscape-font-specification:'Noto Sans CJK TC';text-align:center;letter-spacing:0px;word-spacing:0px;white-space:pre;shape-inside:url(#rect60071-3-6-6);display:inline;stroke-width:0.757906"
       x="98.5438"
       y="0"
       inkscape:label="trail_number"><tspan
         x="161.0312"
         y="172.8938"
         id="tspan17"><tspan
           style="font-weight:bold;-inkscape-font-specification:'Noto Sans CJK TC Bold'"
           id="tspan16">路線編號</tspan></tspan></text>
    <text
       xml:space="preserve"
       transform="matrix(0.24684943,-0.24684943,0.24684943,0.24684943,-36.113848,67.871936)"
       id="text60069-8-3"
       style="font-size:26.6667px;line-height:1.25;font-family:'Noto Sans CJK TC';-inkscape-font-specification:'Noto Sans CJK TC';text-align:center;letter-spacing:0px;word-spacing:0px;white-space:pre;shape-inside:url(#rect60071-3-8-3);display:inline;stroke-width:0.757906"
       x="98.5438"
       y="0"
       inkscape:label="landmark"><tspan
         x="170.17553"
         y="175.31957"
         id="tspan19"><tspan
           style="font-weight:bold;font-size:26.2741px;-inkscape-font-specification:'Noto Sans CJK TC, Bold'"
           id="tspan18">地標名稱</tspan></tspan></text>
    <text
       xml:space="preserve"
       transform="matrix(0.24684943,-0.24684943,0.24684943,0.24684943,-12.180677,62.604705)"
       id="text60069-8-3-8"
       style="font-size:32px;line-height:1.25;font-family:'Noto Sans CJK TC';-inkscape-font-specification:'Noto Sans CJK TC';text-align:center;letter-spacing:0px;word-spacing:0px;white-space:pre;shape-inside:url(#rect60071-3-8-1-8);display:inline;stroke-width:0.757906"
       x="98.5438"
       y="0"
       inkscape:label="numerator"><tspan
         x="126.9526"
         y="185.08093"
         id="tspan21"><tspan
           style="font-weight:bold;font-size:36.3795px;-inkscape-font-specification:'Noto Sans CJK TC, Bold'"
           id="tspan20">里程</tspan></tspan></text>
    <text
       xml:space="preserve"
       transform="matrix(0.24684943,-0.24684943,0.24684943,0.24684943,3.8108771,68.477777)"
       id="text60069-8-3-8-4"
       style="font-size:18.6667px;line-height:1.25;font-family:'Noto Sans CJK TC';-inkscape-font-specification:'Noto Sans CJK TC';text-align:center;letter-spacing:0px;word-spacing:0px;white-space:pre;shape-inside:url(#rect60071-3-8-1-6-5);display:inline;stroke-width:0.757906"
       x="98.5438"
       y="0"
       inkscape:label="denominator"><tspan
         x="115.05176"
         y="167.27957"
         id="tspan22">總里程</tspan></text>
    <rect
       style="display:inline;fill:#000000;stroke:none;stroke-width:1.32292;stroke-linejoin:round;stroke-dasharray:2.64583, 1.32292"
       id="rect105957"
       width="17.677732"
       height="0.58687705"
       x="-4.6066628"
       y="102.19779"
       transform="rotate(-45)" />
    <text
       xml:space="preserve"
       transform="matrix(0.26458333,0,0,0.26458333,11.313796,-4.8144794)"
       id="text51845"
       style="font-size:14.6667px;line-height:1.25;font-family:'Noto Sans CJK TC';-inkscape-font-specification:'Noto Sans CJK TC';text-align:center;letter-spacing:0px;word-spacing:0px;white-space:pre;shape-inside:url(#rect51847);display:inline"
       x="92.812935"
       y="0"
       inkscape:label="notes_bottom_left"><tspan
         x="96.068624"
         y="343.09746"
         id="tspan23">WGS84 N緯度 E經度</tspan></text>
    <text
       xml:space="preserve"
       transform="matrix(0,-0.26458333,0.26458333,0,1.1263996,89.478699)"
       id="text51845-1"
       style="font-size:14.6667px;line-height:1.25;font-family:'Noto Sans CJK TC';-inkscape-font-specification:'Noto Sans CJK TC';text-align:center;letter-spacing:0px;word-spacing:0px;white-space:pre;shape-inside:url(#rect51847-4);display:inline"
       x="92.812935"
       y="0"
       inkscape:label="notes_bottom_right"><tspan
         x="94.034779"
         y="343.09746"
         id="tspan24">TWD97 X東距 Y北距</tspan></text>
  </g>
  <g
     inkscape:groupmode="layer"
     id="layer3"
     inkscape:label="Layer 3"
     style="display:none">
    <path
       d="M 10.990544,100.13456 C 8.2875607,100.13421 6.0886969,97.934991 6.0883441,95.23236 L 6.0886969,5.0373149 c 0,-2.7029833 2.1988638,-4.90219992 4.9018471,-4.90219992 L 101.18629,0.1347622 c 2.70264,0 4.90185,2.1995694 4.90185,4.9025527 V 95.23236 c 0,2.702983 -2.19921,4.9022 -4.90185,4.9022 z"
       style="display:inline;fill:none;stroke:#000000;stroke-width:0.176;stroke-linecap:butt;stroke-linejoin:miter;stroke-miterlimit:22.926;stroke-dasharray:none;stroke-opacity:1"
       id="path1403"
       inkscape:label="outline" />
    <path
       d="m 22.509468,16.524188 c 0.289827,-0.289825 0.759754,-0.2898 1.049578,2.6e-5 0.289829,0.289825 0.289851,0.759753 2.6e-5,1.049578 -0.289826,0.289826 -0.759777,0.289827 -1.049605,10e-7 -0.289826,-0.289826 -0.289825,-0.759779 10e-7,-1.049605 z"
       style="display:inline;fill:#b2b2b2;fill-opacity:1;fill-rule:evenodd;stroke:#000000;stroke-width:0.05715;stroke-linecap:butt;stroke-linejoin:miter;stroke-dasharray:none;stroke-opacity:1"
       id="path144"
       inkscape:label="hole_1" />
    <path
       d="m 86.107014,79.085413 2.612037,2.612035 c 0.04253,0.03362 0.08382,0.07052 0.123574,0.110281 0.404661,0.404661 0.500463,0.968934 0.213229,1.256169 -0.287235,0.287234 -0.851533,0.191456 -1.256194,-0.213205 l -0.0066,0.0066 -2.728969,-2.728968 c -0.404685,-0.404685 -0.500437,-0.96896 -0.213204,-1.256193 0.287234,-0.287234 0.851482,-0.191455 1.256167,0.213229 z"
       style="display:inline;fill:#b2b2b2;fill-opacity:1;fill-rule:evenodd;stroke:#000000;stroke-width:0.05715;stroke-linecap:butt;stroke-linejoin:miter;stroke-dasharray:none;stroke-opacity:1"
       id="path172"
       inkscape:label="hole_2" />
  </g>
  <g
     inkscape:groupmode="layer"
     id="layer5"
     inkscape:label="Layer 4">
    <g
       id="g2"
       transform="rotate(45,23.138953,12.010009)">
      <rect
         style="fill:#000000;stroke:none;stroke-width:0.499999;stroke-linejoin:round;stroke-opacity:0.7"
         id="rect1"
         width="0.1"
         height="2"
         x="26.57803"
         y="14.647139" />
      <rect
         style="fill:#000000;stroke:none;stroke-width:0.499999;stroke-linejoin:round;stroke-opacity:0.7"
         id="rect1-3"
         width="0.1"
         height="2"
         x="-15.697139"
         y="25.628029"
         transform="rotate(-90)" />
    </g>
    <g
       id="g2-3"
       transform="rotate(45,-22.212847,121.58788)">
      <rect
         style="fill:#000000;stroke:none;stroke-width:0.499999;stroke-linejoin:round;stroke-opacity:0.7"
         id="rect1-7"
         width="0.1"
         height="2"
         x="26.57803"
         y="14.647139" />
      <rect
         style="fill:#000000;stroke:none;stroke-width:0.499999;stroke-linejoin:round;stroke-opacity:0.7"
         id="rect1-3-5"
         width="0.1"
         height="2"
         x="-15.697139"
         y="25.628029"
         transform="rotate(-90)" />
    </g>
  </g>
</svg>
