<?xml version="1.0" encoding="UTF-8" standalone="no"?>
<!-- Generator: Adobe Illustrator 28.2.0, SVG Export Plug-In . SVG Version: 6.00 Build 0)  -->

<svg
   version="1.1"
   id="圖層_1"
   x="0px"
   y="0px"
   viewBox="0 0 527 477"
   style="enable-background:new 0 0 527 477;"
   xml:space="preserve"
   sodipodi:docname="milestone.svg"
   inkscape:version="1.3.2 (091e20e, 2023-11-25)"
   xmlns:inkscape="http://www.inkscape.org/namespaces/inkscape"
   xmlns:sodipodi="http://sodipodi.sourceforge.net/DTD/sodipodi-0.dtd"
   xmlns:xlink="http://www.w3.org/1999/xlink"
   xmlns="http://www.w3.org/2000/svg"
   xmlns:svg="http://www.w3.org/2000/svg"><defs
   id="defs231">
	
	
	
	
	
	
	
	
	
	
	
	
	
	
	
	
	
	

		
	</defs><sodipodi:namedview
   id="namedview231"
   pagecolor="#ffffff"
   bordercolor="#666666"
   borderopacity="1.0"
   inkscape:showpageshadow="2"
   inkscape:pageopacity="0.0"
   inkscape:pagecheckerboard="0"
   inkscape:deskcolor="#d1d1d1"
   inkscape:zoom="1.3993895"
   inkscape:cx="267.2594"
   inkscape:cy="322.99799"
   inkscape:window-width="1312"
   inkscape:window-height="891"
   inkscape:window-x="1776"
   inkscape:window-y="103"
   inkscape:window-maximized="0"
   inkscape:current-layer="圖層_1" />
<style
   type="text/css"
   id="style1">
	.st0{clip-path:url(#SVGID_00000160906573987332387260000017475794251047366308_);}
	.st1{fill-rule:evenodd;clip-rule:evenodd;fill:#FFF100;}
	.st2{fill-rule:evenodd;clip-rule:evenodd;fill:#B5B5B6;stroke:#000000;stroke-width:0.216;stroke-miterlimit:22.9256;}
	.st3{fill-rule:evenodd;clip-rule:evenodd;fill:none;stroke:#000000;stroke-miterlimit:10;}
	.st4{stroke:#000000;stroke-miterlimit:10;}
	.st5{fill-rule:evenodd;clip-rule:evenodd;fill:none;stroke:#E0DAD0;stroke-width:0.25;stroke-miterlimit:10;}
	.st6{fill-rule:evenodd;clip-rule:evenodd;fill:#040000;}
	.st7{fill-rule:evenodd;clip-rule:evenodd;fill:#003444;}
	.st8{fill-rule:evenodd;clip-rule:evenodd;fill:#FFF100;stroke:#FFF100;stroke-width:0.15;stroke-miterlimit:10;}
	.st9{fill:#361506;}
	.st10{clip-path:url(#SVGID_00000144322716881206108800000008048404383480068521_);}
	.st11{stroke:#000000;stroke-width:0.25;stroke-miterlimit:10;}
	.st12{font-family:'MicrosoftJhengHeiRegular';}
	.st13{font-size:16.0001px;}
	.st14{stroke:#000000;stroke-width:0.4;stroke-miterlimit:10;}
	.st15{font-size:14.0002px;}
	.st16{stroke:#000000;stroke-width:0.5;stroke-miterlimit:10;}
	.st17{font-size:16.9834px;}
	.st18{font-family:'ArialMT';}
	.st19{font-size:31.8439px;}
	.st20{letter-spacing:1;}
	.st21{font-size:20.0477px;}
	.st22{stroke:#221714;stroke-width:0.3;stroke-miterlimit:10;}
	.st23{font-family:'MicrosoftJhengHeiLight';}
	.st24{font-size:12.7375px;}
	.st25{font-size:12px;}
	.st26{stroke:#000000;stroke-width:0.3;stroke-miterlimit:10;}
	.st27{font-size:34.7598px;}
	.st28{letter-spacing:1.35;}
	.st29{font-family:'DFMing-W12-WINP-BF';}
	.st30{font-size:9px;}
	.st31{letter-spacing:1.11;}
	.st32{font-size:10px;}
	.st33{font-size:11px;}
	.st34{fill:#E60012;}
	.st35{font-family:'AdobeMingStd-Light-B5pc-H';}
	.st36{font-size:50px;}
</style>


<g
   id="g119">
		<defs
   id="defs116">
			<path
   id="SVGID_00000114773573122253776700000003639343821366866590_"
   d="m 81.43,234.19 200.3,-200.3 c 4.79,-4.79 12.63,-4.79 17.42,0 l 200.3,200.3 c 4.79,4.79 4.79,12.63 0,17.42 l -200.3,200.3 c -4.79,4.79 -12.63,4.79 -17.42,0 L 81.43,251.61 c -4.78,-4.79 -4.78,-12.63 0,-17.42 z" />
		</defs>
		<clipPath
   id="SVGID_00000003824054751282716690000011305934762888634536_">
			<use
   xlink:href="#SVGID_00000114773573122253776700000003639343821366866590_"
   style="overflow:visible"
   id="use116" />
		</clipPath>
		<g
   clip-path="url(#SVGID_00000003824054751282716690000011305934762888634536_)"
   id="g118">
			<path
   class="st1"
   d="M 132.88,233.07 285.11,80.84 c 3.64,-3.64 9.6,-3.64 13.24,0 l 152.23,152.23 c 3.64,3.64 3.64,9.6 0,13.24 L 298.35,398.53 c -3.64,3.64 -9.6,3.64 -13.24,0 L 132.88,246.3 c -3.64,-3.64 -3.64,-9.59 0,-13.23 z"
   id="path116" />
			<path
   class="st2"
   d="m 292.82,97.45 c 1.27,0 2.31,-1.04 2.31,-2.31 0,-1.27 -1.04,-2.31 -2.31,-2.31 -1.27,0 -2.31,1.04 -2.31,2.31 0,1.27 1.03,2.31 2.31,2.31 z"
   id="path117" />
			<path
   class="st3"
   d="M 389.97,225"
   id="path118" />
		</g>
		
			<use
   xlink:href="#SVGID_00000114773573122253776700000003639343821366866590_"
   style="clip-rule:evenodd;overflow:visible;fill:none;fill-rule:evenodd;stroke:#000000;stroke-miterlimit:10"
   id="use118" />
	</g><path
   class="st3"
   d="M 389.54,225.8"
   id="path119" /><g
   id="g131">
			<g
   id="g127">
				
				
				
				<path
   d="M 236.56,319.37"
   id="path127" />
				<line
   class="st4"
   x1="243.83"
   y1="316.10001"
   x2="343.82001"
   y2="314.78"
   id="line127" />
			</g>
			<g
   id="g129">
				<text
   transform="matrix(0.9999,-0.0132,0.0132,0.9999,341.3123,302.1271)"
   id="text129"><tspan
     x="0"
     y="0"
     class="st16 st12 st17"
     id="tspan128">k</tspan><tspan
     x="9.8900003"
     y="0"
     class="st16 st12 st17"
     id="tspan129">m</tspan></text>
			</g>
			<text
   transform="matrix(0.9999,-0.0132,0.0132,0.9999,300.619,354.3299)"
   id="text131"><tspan
     x="0"
     y="0"
     class="st11 st12 st15"
     id="tspan130">k</tspan><tspan
     x="8.1499996"
     y="0"
     class="st11 st12 st15"
     id="tspan131">m</tspan></text>
		</g><text
   class="st22 st23 st24"
   id="text138"
   x="238.4496"
   y="271.04651">(緊急事故報案編碼)</text><path
   class="st5"
   d="M 132.6,232.46 284.82,80.24 c 3.64,-3.64 9.6,-3.64 13.24,0 l 152.23,152.23 c 3.64,3.64 3.64,9.6 0,13.24 L 298.06,397.93 c -3.64,3.64 -9.6,3.64 -13.24,0 L 132.6,245.7 c -3.64,-3.64 -3.64,-9.6 0,-13.24 z"
   id="path138" /><path
   class="st7"
   d="M 384.92,179.5 Z"
   id="path199" /><path
   class="st7"
   d="m 394.97,180.97 v 0 c -0.02,-0.04 -0.02,-0.09 -0.03,-0.09 -0.03,0 -0.08,0.01 -0.08,0.02 -0.01,0.03 0.01,0.06 0.02,0.1 0.02,0 0.05,-0.01 0.09,-0.03 z"
   id="path200" /><g
   id="g202">
		<text
   transform="matrix(0.6364,0.6364,-0.7071,0.7071,179.1764,285.435)"
   id="text202"><tspan
     x="0"
     y="0"
     class="st29 st30 st31"
     id="tspan200">林</tspan><tspan
     x="10.3"
     y="0"
     class="st29 st30 st31"
     id="tspan201">業保育署新竹分</tspan><tspan
     x="82.440002"
     y="0"
     class="st29 st30"
     id="tspan202">署  </tspan></text>
	</g><g
   id="g205">
		<text
   transform="matrix(0.4897,-0.51,0.7213,0.6926,404.0741,284.7594)"
   id="text205"><tspan
     x="0"
     y="0"
     class="st29 st32"
     id="tspan203">共</tspan><tspan
     x="10.94"
     y="0"
     class="st29 st32"
     id="tspan204">同承</tspan><tspan
     x="32.830002"
     y="0"
     class="st29 st32"
     id="tspan205">作</tspan></text>
	</g><g
   id="g215">
		<g
   id="g211">
			<path
   class="st7"
   d="m 396.17,293.38 c 0,0 -0.04,0.1 -0.03,0.15 0.03,0.22 0.11,0.79 0.27,0.94 0.03,-0.03 0.03,-0.08 0.02,-0.11 -0.01,-0.03 -0.04,-0.25 -0.04,-0.3 0,-0.05 0.02,-0.08 0.05,-0.1 0.03,-0.01 0.1,-0.01 0.16,-0.03 0.06,-0.02 0.15,-0.04 0.16,-0.04 0.01,0 -0.02,-0.19 -0.06,-0.26 -0.04,-0.06 -0.1,-0.12 -0.24,-0.16 -0.13,-0.04 -0.15,-0.05 -0.2,-0.07 -0.03,-0.01 -0.06,-0.03 -0.08,-0.04 l -0.01,0.02 z"
   id="path205" />
			<path
   class="st7"
   d="m 397.27,294.32 c -0.05,-0.06 -0.1,-0.13 -0.15,-0.2 0.01,0.04 0.02,0.08 0.03,0.1 0.01,0.03 0.07,0.07 0.12,0.1 z"
   id="path206" />
			<path
   class="st7"
   d="m 396.56,293.41 c -0.01,-0.01 -0.01,-0.02 -0.02,-0.02 -0.04,-0.05 -0.13,-0.16 -0.21,-0.26 -0.04,0.07 -0.09,0.14 -0.13,0.2 0.02,0.01 0.04,0.01 0.07,0.01 0.08,0 0.09,0.02 0.15,0.05 0.06,0.02 0.08,0.02 0.14,0.02 z"
   id="path207" />
			<path
   class="st7"
   d="m 399.55,295.15 c -0.04,0.05 -0.08,0.09 -0.12,0.14 0,0.01 0.01,0.02 0.01,0.03 l -0.07,0.04 c -0.25,0.27 -0.52,0.53 -0.81,0.76 l 0.14,0.06 c 0,0.01 -0.01,0.03 -0.01,0.04 v 0 c -0.08,-0.03 -0.17,0.03 -0.25,0 -0.07,0.05 -0.13,0.1 -0.2,0.15 0.01,0 0.03,0.01 0.04,0.01 0.11,0.04 0.22,0.07 0.33,0.09 0.17,0.04 0.25,-0.05 0.2,-0.22 0.15,0 0.28,-0.07 0.29,-0.17 0.04,-0.27 0.23,-0.43 0.42,-0.6 0.06,-0.06 0.15,-0.09 0.22,-0.14 0,-0.01 0.01,-0.03 0.01,-0.04 -0.09,-0.01 -0.16,-0.07 -0.2,-0.15 z"
   id="path208" />
			<path
   class="st7"
   d="m 397.95,296.55 c -0.38,0.23 -0.75,0.41 -1.09,0.54 0.06,0 0.1,0.01 0.14,0.01 0.14,-0.02 0.2,0.13 0.31,0.16 0.04,0.01 0.09,0.01 0.12,-0.01 0.02,-0.01 0.02,-0.07 0.01,-0.1 0,-0.05 -0.02,-0.1 -0.03,-0.15 0.04,-0.01 0.07,-0.02 0.1,-0.03 -0.01,-0.05 -0.02,-0.09 -0.04,-0.13 0.29,-0.01 0.32,0.01 0.38,0.22 0.11,-0.09 0.22,-0.17 0.33,-0.25 -0.01,-0.01 -0.02,-0.02 -0.02,-0.03 -0.03,0.01 -0.06,0.03 -0.05,0.03 -0.09,-0.1 -0.14,-0.19 -0.16,-0.26 z"
   id="path209" />
			<path
   class="st7"
   d="m 398.74,296.02 v 0 c 0.01,0.01 0.02,0.03 0.02,0.04 0.06,-0.03 0.12,-0.07 0.19,-0.1 0.01,0.01 0.01,0.01 0.02,0.02 -0.03,0.04 -0.05,0.07 -0.09,0.12 0.04,0.01 0.09,0.03 0.09,0.02 0.03,-0.08 0.05,-0.17 0.08,-0.26 -0.02,-0.01 -0.03,-0.02 -0.05,-0.03 -0.1,0.08 -0.18,0.13 -0.26,0.19 z"
   id="path210" />
			<path
   class="st7"
   d="m 400.1,294.56 v 0 c -0.01,0.02 -0.05,0.08 -0.04,0.09 0.04,0.05 0.1,0.09 0.16,0.12 0.02,0.01 0.06,-0.02 0.08,-0.04 -0.02,-0.02 -0.04,-0.05 -0.06,-0.07 -0.03,-0.03 -0.07,-0.05 -0.14,-0.1 z"
   id="path211" />
		</g>
		<g
   id="g214">
			<path
   class="st7"
   d="m 387.63,288.97 c 0.06,-0.13 0.07,-0.29 0.12,-0.44 0.04,0.09 0,0.23 0.15,0.23 0.03,-0.09 0.05,-0.17 0.08,-0.26 -0.03,-0.01 -0.05,-0.01 -0.09,-0.02 0.02,-0.09 0.04,-0.19 0.06,-0.28 -0.1,-0.03 -0.12,-0.11 -0.05,-0.2 0.01,-0.01 0.02,-0.02 0.02,-0.04 l 0.03,0.02 c 0.05,-0.07 0.06,0.1 0.04,-0.09 l -0.03,-0.01 c 0.01,-0.02 0.01,-0.03 0.02,-0.05 0.07,-0.14 0.14,-0.28 0.21,-0.42 0.02,-0.04 0.04,-0.07 0.06,-0.11 0.15,0.09 0.2,0.03 0.25,-0.03 -0.06,-0.03 -0.12,-0.02 -0.22,-0.03 0.04,-0.07 0.08,-0.14 0.13,-0.2 0.01,-0.02 0.04,-0.03 0.05,-0.05 0.05,-0.07 0.09,-0.15 0.13,-0.22 0,0 -0.02,0.18 0.02,0.03 0.01,-0.02 0.01,-0.05 0,-0.07 0.01,-0.01 0.01,-0.02 0.02,-0.02 0.06,-0.08 0.14,-0.14 0.2,-0.21 l 0.05,-0.06 c 0.16,0.1 0.21,0.03 0.26,-0.02 -0.06,-0.03 -0.11,-0.02 -0.21,-0.03 0.22,-0.23 0.43,-0.45 0.64,-0.68 l 0.08,0.06 c 0.05,-0.07 0.06,0.1 0.04,-0.09 -0.03,-0.01 -0.06,-0.01 -0.08,-0.02 0.06,-0.07 0.12,-0.13 0.18,-0.2 0.12,-0.13 0.24,-0.22 0.41,-0.23 0.04,0 0.08,0.01 0.13,0.02 -0.01,-0.07 -0.02,-0.15 -0.04,-0.23 0.01,0 0.02,-0.01 0.03,-0.01 0.02,0.03 0.05,0.07 0.07,0.1 0.01,0 0.02,0 0.04,-0.01 -0.01,-0.06 -0.02,-0.12 -0.03,-0.22 0.09,-0.03 0.19,-0.06 0.3,-0.1 0.02,-0.01 0.05,-0.01 0.05,-0.03 0.07,-0.2 0.27,-0.12 0.4,-0.18 0.05,-0.03 0.09,-0.08 0.14,-0.11 0.08,-0.04 0.15,-0.07 0.23,-0.11 0.11,0.04 0.15,-0.01 0.19,-0.06 -0.01,-0.01 -0.02,-0.01 -0.03,-0.01 h 0.01 c 0.06,-0.02 0.12,-0.04 0.17,-0.07 0.07,-0.04 0.12,-0.06 0.16,-0.08 0.18,0.02 0.09,0.01 0.11,-0.02 0.04,0 0.1,0.01 0.18,0.03 -0.04,-0.04 -0.06,-0.06 -0.11,-0.11 0.14,-0.03 0.24,-0.15 0.36,-0.06 0.04,-0.02 0.09,-0.07 0.1,-0.06 0.05,0.05 0.11,0.1 0.14,0.17 0.02,0.04 -0.01,0.13 0.02,0.15 0.09,0.07 0.16,0.16 0.21,0.26 0.01,-0.01 0.02,-0.01 0.03,-0.02 0,-0.1 0.01,-0.2 -0.02,-0.29 -0.03,-0.09 -0.09,-0.18 -0.15,-0.28 0.09,-0.04 0.17,-0.08 0.24,-0.12 0.02,0.1 0.01,0.2 0.06,0.23 0.05,0.05 0.15,0.04 0.25,0.06 -0.06,-0.13 -0.01,-0.28 0.07,-0.32 0.07,-0.04 0.22,0.04 0.26,0.15 0.1,-0.15 0.17,-0.05 0.25,0.04 0.01,-0.01 0.02,-0.02 0.03,-0.02 -0.02,-0.05 -0.03,-0.1 -0.06,-0.18 0.21,-0.01 0.41,-0.02 0.61,-0.01 0.18,0 0.36,0.01 0.53,0.03 0.24,0.03 0.48,0.07 0.73,0.1 0.09,0.01 0.18,0 0.27,0.03 0.05,0.01 0.1,0.07 0.15,0.1 0.04,0.03 0.11,0.07 0.13,0.06 0.13,-0.11 0.21,0.02 0.3,0.06 0.28,0.11 0.55,0.21 0.82,0.35 0.32,0.16 0.63,0.35 0.94,0.56 -0.05,0 -0.1,0 -0.17,0 0.08,0.19 0.35,0.17 0.39,0.38 0.31,-0.05 0.51,0.16 0.69,0.38 0.03,0.04 0.07,0.07 0.11,0.1 0.04,0.04 0.06,0.1 0.08,0.15 0.05,0.03 0.12,0.05 0.15,0.09 0.3,0.41 0.62,0.82 0.89,1.25 0.2,0.34 0.39,0.7 0.45,1.1 0.02,0.1 0.11,0.19 0.14,0.3 0.05,0.2 0.09,0.4 0.11,0.61 0,0.03 -0.07,0.07 -0.11,0.11 0.04,0.01 0.07,0.01 0.11,0.02 0,0.09 0.01,0.19 0.01,0.28 0.01,0.08 -0.04,0.19 0.11,0.2 0.01,0 0.03,0.06 0.03,0.09 0.01,0.26 0.03,0.52 0.03,0.78 0,0.28 -0.01,0.57 -0.05,0.84 -0.05,0.35 -0.12,0.69 -0.2,1.03 -0.12,0.49 -0.32,0.96 -0.56,1.4 -0.08,0.15 -0.12,0.34 -0.38,0.28 0.05,0.07 0.08,0.12 0.12,0.18 -0.18,0.18 -0.17,0.58 -0.57,0.54 0,0.03 0.01,0.08 0.02,0.18 -0.08,-0.05 -0.12,-0.08 -0.16,-0.1 0.01,0 0.03,0 0.04,0 0,-0.1 0.05,-0.23 0.01,-0.29 -0.01,-0.01 -0.01,-0.02 -0.02,-0.03 1.09,-1.46 1.57,-3.34 1.32,-5.12 0.01,0.03 0.03,0.06 0.05,0.09 0.15,-0.12 -0.01,-0.23 0,-0.34 v 0 c -0.04,0.03 -0.07,0.07 -0.08,0.1 -0.02,-0.11 -0.04,-0.23 -0.07,-0.34 l 0.14,0.13 c 0.01,-0.09 0.01,-0.16 0.02,-0.25 -0.06,0.04 -0.11,0.07 -0.17,0.1 -0.26,-1.15 -0.83,-2.23 -1.74,-3.11 -1.13,-1.09 -2.29,-1.64 -3.37,-1.87 -0.7,-0.15 -1.15,-0.2 -1.23,-0.14 0.42,1.1 -0.74,1.07 -0.72,1.59 0.02,0.56 0.19,0.49 0.19,1.17 -0.01,0.68 -0.69,1.01 -0.5,1.6 0.45,0.6 0.66,0.36 0.9,0.99 0.14,0.38 -0.11,0.95 0.13,1.32 0.41,0.61 1.22,0.84 1.77,1.29 0.32,0.26 0.15,0.68 -0.05,1.03 l 0.24,0.3 v 0 c 0.09,0 0.1,0 0.1,-0.01 0,-0.01 -0.06,-0.04 -0.08,-0.05 -0.02,-0.01 -0.01,-0.06 -0.01,-0.06 0,0 -0.02,-0.02 -0.01,-0.03 0.01,-0.01 0.02,-0.02 0.02,-0.04 0,-0.02 0.02,-0.07 0.03,-0.08 0.01,-0.01 0.12,-0.04 0.16,0.01 0.04,0.05 0.01,0.15 0,0.17 -0.01,0.02 0,0.03 0.02,0.03 0.03,-0.01 0.11,-0.04 0.17,0 0.06,0.03 0.1,0.06 0.2,0.13 0.1,0.06 0.16,0.12 0.2,0.16 0.05,0.04 0.09,0.07 0.09,0.08 0,0.01 0,0.05 -0.04,0.06 -0.04,0.01 -0.05,0.01 -0.06,0 -0.01,-0.01 -0.03,-0.03 -0.02,-0.04 0.01,-0.01 0.01,-0.04 -0.01,-0.06 -0.02,-0.02 -0.07,-0.02 -0.13,-0.07 -0.06,-0.05 -0.09,-0.05 -0.12,-0.07 -0.04,-0.02 -0.13,0 -0.13,0.03 0,0.03 0.02,0.17 0.05,0.24 0.03,0.07 0.17,0.06 0.18,0.12 0.01,0.06 0,0.08 -0.05,0.09 -0.04,0.01 -0.11,-0.09 -0.11,-0.09 l 0.04,0.16 0.06,0.07 c 0.05,0.06 0.1,0.13 0.15,0.2 0,0 0.01,0.01 0.01,0.01 0.06,0.04 0.16,0.18 0.17,0.2 0.01,0.01 0.09,0.08 0.11,0.1 0.02,0.02 0.13,0.12 0.16,0.17 0.02,0.04 -0.01,0.09 -0.04,0.11 0.13,0.18 0.22,0.32 0.22,0.32 l -0.02,0.01 c 0,0 -0.09,-0.14 -0.22,-0.32 0,0 0,0 -0.01,0 -0.04,0 -0.07,-0.06 -0.08,-0.08 -0.01,-0.02 -0.01,-0.05 -0.04,-0.08 -0.03,-0.03 -0.08,-0.11 -0.1,-0.14 -0.02,-0.03 -0.1,-0.07 -0.18,-0.13 -0.08,-0.06 -0.19,-0.14 -0.22,-0.15 -0.02,-0.02 -0.1,-0.13 -0.13,-0.18 -0.03,-0.04 -0.06,-0.13 -0.11,-0.11 -0.06,0.02 -0.32,0.04 -0.32,0.04 -0.02,0.01 0.02,0.09 0.01,0.14 -0.01,0.05 -0.04,0.14 -0.03,0.21 0.01,0.04 0,0.08 -0.02,0.1 0.03,0.05 0.02,0.11 0,0.16 0,0 0,0.01 0,0.01 -0.02,0.17 -0.08,0.37 -0.02,0.49 0.01,0.02 0.03,0.05 0.04,0.08 0.8,0.79 -0.14,2 -0.84,2.13 -0.18,0.03 0.15,0 0.71,-0.17 l 0.01,0.01 0.04,-0.02 c 0.13,-0.04 0.27,-0.09 0.41,-0.14 l 0.33,0.28 c -0.1,0.02 -0.16,0.02 -0.21,0.04 -0.06,0.02 -0.11,0.07 -0.17,0.07 -0.08,0 -0.16,-0.02 -0.24,-0.04 0,-0.01 0,-0.03 0,-0.04 -0.03,0.02 -0.05,0.04 -0.09,0.07 0.04,0.03 0.07,0.05 0.13,0.1 -0.18,0.05 -0.33,0.09 -0.49,0.13 -0.03,-0.05 -0.06,-0.08 -0.09,-0.13 -0.05,0.16 -0.17,0.18 -0.29,0.21 -0.44,0.1 -0.9,0.12 -1.35,0.12 -0.27,0 -0.53,-0.01 -0.8,-0.04 l 0.05,-0.12 c -0.12,-0.02 -0.12,-0.03 -0.22,-0.07 0.07,0.13 0.07,0.05 0.07,0.18 -0.22,-0.03 -0.44,-0.07 -0.65,-0.13 -0.06,-0.01 -0.11,-0.03 -0.17,-0.04 0.01,-0.01 0.02,-0.02 0.02,-0.04 0.04,-0.1 0.02,-0.07 -0.01,-0.11 l -0.09,-0.04 -0.07,0.08 -0.03,0.04 c -0.06,-0.03 -0.11,-0.07 -0.16,-0.12 -0.04,-0.04 -0.15,-0.14 -0.26,-0.04 -0.02,0.02 -0.08,0.01 -0.13,0.01 0,-0.09 0,-0.17 -0.01,-0.29 -0.05,0.07 -0.08,0.1 -0.1,0.12 -0.09,0 -0.18,0 -0.27,-0.01 -0.05,-0.01 -0.16,0.01 -0.11,-0.11 0,-0.01 -0.05,-0.04 -0.08,-0.06 -0.01,0.02 -0.03,0.04 -0.05,0.07 -0.1,-0.04 -0.19,-0.08 -0.12,-0.23 -0.09,-0.04 -0.15,-0.2 -0.28,-0.04 -0.05,-0.16 -0.13,-0.22 -0.28,-0.16 -0.03,0.01 -0.08,-0.01 -0.11,-0.03 -0.13,-0.09 -0.26,-0.18 -0.42,-0.29 0.11,0.02 0.18,0.03 0.26,0.05 0.06,-0.12 -0.05,-0.17 -0.11,-0.21 -0.12,-0.07 -0.24,-0.18 -0.41,-0.01 -0.16,-0.34 -0.3,-0.66 -0.45,-0.98 -0.11,0.04 -0.14,0.08 -0.15,0.27 -0.14,-0.03 -0.52,-0.51 -0.83,-1.01 0.06,-0.01 0.11,-0.04 0.13,-0.1 0.02,-0.03 0.03,-0.07 0.02,-0.11 -0.02,-0.11 -0.02,-0.07 -0.07,-0.09 l -0.1,0.01 -0.02,0.11 -0.01,0.11 c -0.12,-0.19 -0.22,-0.38 -0.3,-0.55 0.05,0 0.1,0 0.15,0 -0.02,-0.02 -0.03,-0.03 -0.05,-0.05 0.01,-0.05 0.02,-0.1 0.01,-0.15 -0.01,-0.05 -0.04,-0.12 -0.08,-0.15 -0.08,-0.05 -0.25,0 -0.17,-0.19 0.01,-0.02 -0.07,-0.07 -0.12,-0.11 0.02,-0.02 0.04,-0.05 0.06,-0.09 -0.05,0 -0.08,0.01 -0.13,0.01 -0.08,-0.32 -0.16,-0.63 -0.24,-0.96 0.07,0.02 0.13,0.16 0.21,0.02 0.03,-0.05 0.02,-0.11 0.03,-0.16 -0.04,0.02 -0.08,0.03 -0.11,0.05 -0.08,0.06 -0.18,0.02 -0.19,-0.11 -0.01,-0.09 -0.02,-0.19 -0.03,-0.28 0.02,0.02 0.01,0.08 0.02,-0.01 0,-0.04 -0.01,-0.05 -0.03,-0.05 -0.03,-0.22 -0.05,-0.44 -0.06,-0.67 0,-0.09 -0.01,-0.19 -0.01,-0.28 0.11,-0.05 0.13,-0.07 0.23,-0.13 -0.05,-0.09 -0.11,-0.26 -0.22,-0.31 0.01,-0.1 0.02,-0.2 0.03,-0.3 0.15,0.01 0.04,0.04 0.14,-0.07 -0.08,-0.13 0.02,-0.08 -0.12,-0.09 0.02,-0.16 0.05,-0.32 0.09,-0.49 0.42,0.19 0.16,-0.32 0.23,-0.44 z"
   id="path212" />
			<path
   class="st8"
   d="m 390.56,291.3 2.37,2.31 -0.75,0.77 -2.17,-2.12 -0.37,0.38 2.54,2.48 2.23,-2.28 c 0.13,-0.14 0.2,-0.25 0.18,-0.35 -0.01,-0.1 -0.04,-0.18 -0.1,-0.26 -0.05,-0.08 -0.11,-0.15 -0.18,-0.22 l -2.09,-2.04 -0.37,0.38 2.01,1.96 c 0.06,0.06 0.09,0.11 0.1,0.16 0.01,0.05 -0.04,0.12 -0.14,0.22 l -0.53,0.54 -2.37,-2.31 z"
   id="path213" />
			<path
   class="st7"
   d="m 397.75,292.12 -0.31,-0.3 0.05,-0.05 -0.66,-0.65 2.52,-2.58 0.66,0.65 0.04,-0.04 0.31,0.3 z m 0.09,-1.43 -0.32,0.33 0.36,0.35 0.32,-0.33 z m 1.08,-0.39 -0.36,-0.35 -0.35,0.36 0.36,0.35 z m 0.73,-0.75 -0.36,-0.35 -0.37,0.38 0.36,0.35 z m -2.97,1.44 -1.61,-1.57 1.11,-1.13 1.24,1.21 c 0.04,0.04 0.09,0.1 0.15,0.17 0.05,0.07 0.07,0.15 0.07,0.24 -0.01,0.08 -0.09,0.2 -0.24,0.36 z m -0.23,-1.72 -0.33,-0.33 -0.38,0.39 0.33,0.33 z m 0.3,0.3 -0.38,0.39 0.36,0.35 0.22,-0.23 c 0.06,-0.06 0.09,-0.11 0.1,-0.15 0,-0.04 -0.01,-0.08 -0.05,-0.11 z m -0.43,-1.46 1.27,-1.3 1.35,1.32 c 0.06,0.06 0.1,0.12 0.13,0.19 0.03,0.07 0.04,0.14 0.03,0.21 -0.01,0.08 -0.11,0.21 -0.29,0.4 l -0.17,0.17 -0.32,-0.31 0.14,-0.15 c 0.05,-0.05 0.08,-0.09 0.08,-0.12 0,-0.03 -0.01,-0.06 -0.04,-0.09 l -0.05,-0.05 -0.56,0.57 0.14,0.14 c 0.03,0.03 0.07,0.07 0.11,0.13 0.04,0.05 0.06,0.12 0.07,0.19 0.01,0.07 -0.04,0.16 -0.14,0.27 l -0.17,0.18 -0.3,-0.29 0.03,-0.03 c 0.04,-0.04 0.03,-0.1 -0.04,-0.17 z m 1.13,0.4 0.16,0.15 0.56,-0.57 -0.16,-0.15 z m -0.47,-0.48 0.18,0.18 0.55,-0.56 -0.18,-0.18 z"
   id="path214" />
		</g>
	</g><g
   id="g216">
		<text
   transform="matrix(0.4881,-0.5116,0.7235,0.6903,380.8333,308.3109)"
   id="text216"><tspan
     x="0"
     y="0"
     class="st29 st33"
     id="tspan215"> </tspan><tspan
     x="3.6600001"
     y="0"
     class="st29 st33"
     id="tspan216">與</tspan></text>
	</g><g
   id="g230">
		<g
   id="g227">
			<g
   id="g226">
				<path
   class="st9"
   d="m 341,332.69 c -3.02,3.16 -2.9,8.17 0.26,11.19 3.16,3.02 8.17,2.9 11.19,-0.26 3.02,-3.16 2.9,-8.17 -0.26,-11.19 -3.16,-3.02 -8.17,-2.91 -11.19,0.26 m 10.85,10.35 c -2.7,2.83 -7.18,2.93 -10.01,0.23 -2.83,-2.7 -2.93,-7.18 -0.23,-10.01 2.7,-2.83 7.18,-2.93 10.01,-0.24 2.82,2.71 2.93,7.19 0.23,10.02"
   id="path216" />
				
					<rect
   x="344.29001"
   y="335.78"
   transform="matrix(0.6903,-0.7235,0.7235,0.6903,-139.5246,354.7231)"
   class="st9"
   width="0.66000003"
   height="9.1499996"
   id="rect216" />
				
					<rect
   x="340.76001"
   y="337.29001"
   transform="matrix(0.6903,-0.7235,0.7235,0.6903,-138.5605,351.5201)"
   class="st9"
   width="1.22"
   height="0.66000003"
   id="rect217" />
				
					<rect
   x="346.89001"
   y="343.14999"
   transform="matrix(0.6903,-0.7235,0.7235,0.6903,-140.8968,357.7735)"
   class="st9"
   width="1.22"
   height="0.66000003"
   id="rect218" />
				
					<rect
   x="343.60001"
   y="333.37"
   transform="matrix(0.6903,-0.7235,0.7235,0.6903,-134.563,353.0136)"
   class="st9"
   width="3.02"
   height="0.66000003"
   id="rect219" />
				
					<rect
   x="349.73999"
   y="339.23001"
   transform="matrix(0.6903,-0.7235,0.7235,0.6903,-136.8993,359.267)"
   class="st9"
   width="3.02"
   height="0.66000003"
   id="rect220" />
				
					<rect
   x="347.03"
   y="332.91"
   transform="matrix(0.6903,-0.7235,0.7235,0.6903,-136.599,355.8161)"
   class="st9"
   width="0.66000003"
   height="9.1499996"
   id="rect221" />
				
					<rect
   x="345.17001"
   y="335.09"
   transform="matrix(0.6903,-0.7235,0.7235,0.6903,-138.8236,354.985)"
   class="st9"
   width="0.22"
   height="9.1499996"
   id="rect222" />
				
					<rect
   x="346.60001"
   y="333.60001"
   transform="matrix(0.6903,-0.7235,0.7235,0.6903,-137.2993,355.5545)"
   class="st9"
   width="0.22"
   height="9.1499996"
   id="rect223" />
				
					<rect
   x="347.89001"
   y="332.23999"
   transform="matrix(0.6903,-0.7235,0.7235,0.6903,-135.9206,356.0696)"
   class="st9"
   width="0.22"
   height="9.1499996"
   id="rect224" />
				
					<rect
   x="343.87"
   y="339.04999"
   transform="matrix(0.6903,-0.7235,0.7235,0.6903,-138.5151,355.0177)"
   class="st9"
   width="3.22"
   height="0.55000001"
   id="rect225" />
				
					<rect
   x="345.64001"
   y="336.89001"
   transform="matrix(0.6903,-0.7235,0.7235,0.6903,-136.3125,355.8405)"
   class="st9"
   width="3.79"
   height="0.55000001"
   id="rect226" />
			</g>
		</g>
		<g
   id="g229">
			<text
   transform="matrix(0.5402,-0.5626,0.7213,0.6926,355.388,333.5797)"
   id="text229"><tspan
     x="0"
     y="0"
     class="st29 st32"
     id="tspan227">和</tspan><tspan
     x="10.85"
     y="0"
     class="st29 st32"
     id="tspan228">通集</tspan><tspan
     x="32.560001"
     y="0"
     class="st29 st32"
     id="tspan229">團</tspan></text>
		</g>
	</g>

<text
   xml:space="preserve"
   style="font-weight:bold;font-size:10px;line-height:1.25;font-family:sans-serif;-inkscape-font-specification:'sans-serif Bold';text-align:center;text-anchor:middle"
   x="38.884972"
   y="268.60095"
   id="text231"
   transform="rotate(-45)"><tspan
     sodipodi:role="line"
     id="tspan231"
     x="38.884972"
     y="268.60095"
     style="font-style:normal;font-variant:normal;font-weight:normal;font-stretch:normal;font-size:10px;font-family:'Noto Sans TC';-inkscape-font-specification:'Noto Sans TC'">TWD97 X [X坐標] Y [Y坐標]</tspan></text><text
   xml:space="preserve"
   style="font-weight:bold;font-size:10px;line-height:1.25;font-family:sans-serif;-inkscape-font-specification:'sans-serif Bold';text-align:center;text-anchor:middle"
   x="377.54013"
   y="-144.33247"
   id="text231-5"
   transform="rotate(45)"><tspan
     sodipodi:role="line"
     id="tspan231-7"
     x="377.54013"
     y="-144.33247"
     style="font-style:normal;font-variant:normal;font-weight:normal;font-stretch:normal;font-size:10px;font-family:'Noto Sans TC';-inkscape-font-specification:'Noto Sans TC'">WGS [緯度] N  [經度] E</tspan></text><text
   xml:space="preserve"
   style="font-style:normal;font-variant:normal;font-weight:bold;font-stretch:normal;font-size:20.8px;line-height:1.25;font-family:'Noto Sans TC';-inkscape-font-specification:'Noto Sans TC Bold';text-align:center;text-anchor:middle"
   x="290.4437"
   y="175.79094"
   id="text232"><tspan
     sodipodi:role="line"
     id="tspan232"
     x="290.4437"
     y="175.79094"
     style="font-style:normal;font-variant:normal;font-weight:bold;font-stretch:normal;font-size:20.8px;font-family:'Noto Sans TC';-inkscape-font-specification:'Noto Sans TC Bold'">[路線名稱]</tspan></text><text
   xml:space="preserve"
   style="font-style:normal;font-variant:normal;font-weight:bold;font-stretch:normal;font-size:17.3333px;line-height:1.25;font-family:'Noto Sans TC';-inkscape-font-specification:'Noto Sans TC Bold';text-align:center;text-anchor:middle"
   x="249.62939"
   y="303.21976"
   id="text232-5"><tspan
     sodipodi:role="line"
     id="tspan232-8"
     x="249.62939"
     y="303.21976"
     style="font-style:normal;font-variant:normal;font-weight:bold;font-stretch:normal;font-size:17.3333px;font-family:'Noto Sans TC';-inkscape-font-specification:'Noto Sans TC Bold'">[終點]</tspan></text><text
   xml:space="preserve"
   style="font-style:normal;font-variant:normal;font-weight:bold;font-stretch:normal;font-size:35.6931px;line-height:1.25;font-family:'Noto Sans TC';-inkscape-font-specification:'Noto Sans TC Bold';text-align:center;text-anchor:middle;stroke-width:1"
   x="359.54144"
   y="265.59375"
   id="text232-5-7"
   transform="scale(0.86115345,1.1612332)"><tspan
     sodipodi:role="line"
     id="tspan232-8-3"
     x="359.54144"
     y="265.59375"
     style="font-style:normal;font-variant:normal;font-weight:normal;font-stretch:normal;font-size:35.6931px;font-family:'Noto Sans TC';-inkscape-font-specification:'Noto Sans TC';stroke-width:1">[D2]</tspan></text><text
   xml:space="preserve"
   style="font-style:normal;font-variant:normal;font-weight:bold;font-stretch:normal;font-size:13.3333px;line-height:1.25;font-family:'Noto Sans TC';-inkscape-font-specification:'Noto Sans TC Bold';text-align:center;text-anchor:middle"
   x="288.90359"
   y="334.8504"
   id="text232-5-3"><tspan
     sodipodi:role="line"
     id="tspan232-8-2"
     x="288.90359"
     y="334.8504"
     style="font-style:normal;font-variant:normal;font-weight:bold;font-stretch:normal;font-size:13.3333px;font-family:'Noto Sans TC';-inkscape-font-specification:'Noto Sans TC Bold'">[起點]</tspan></text><text
   xml:space="preserve"
   style="font-style:normal;font-variant:normal;font-weight:bold;font-stretch:normal;font-size:16px;line-height:1.25;font-family:'Noto Sans TC';-inkscape-font-specification:'Noto Sans TC Bold';text-align:center;text-anchor:middle"
   x="284.39673"
   y="354.16504"
   id="text232-5-3-0"><tspan
     sodipodi:role="line"
     id="tspan232-8-2-4"
     x="284.39673"
     y="354.16504"
     style="font-style:normal;font-variant:normal;font-weight:normal;font-stretch:normal;font-size:16px;font-family:'Noto Sans TC';-inkscape-font-specification:'Noto Sans TC'">[D1]</tspan></text><text
   xml:space="preserve"
   style="font-weight:bold;font-size:12px;line-height:1.25;font-family:sans-serif;-inkscape-font-specification:'sans-serif Bold';text-align:center;text-anchor:middle"
   x="290.67767"
   y="205.80402"
   id="text1"><tspan
     sodipodi:role="line"
     id="tspan1"
     x="290.67767"
     y="205.80402"
     style="font-style:normal;font-variant:normal;font-weight:normal;font-stretch:normal;font-size:12px;font-family:'Noto Sans TC';-inkscape-font-specification:'Noto Sans TC'">[分段第一行]</tspan></text><text
   xml:space="preserve"
   style="font-weight:bold;font-size:12px;line-height:1.25;font-family:sans-serif;-inkscape-font-specification:'sans-serif Bold';text-align:center;text-anchor:middle"
   x="290.67767"
   y="220.75334"
   id="text1-4"><tspan
     sodipodi:role="line"
     id="tspan1-0"
     x="290.67767"
     y="220.75334"
     style="font-style:normal;font-variant:normal;font-weight:normal;font-stretch:normal;font-size:12px;font-family:'Noto Sans TC';-inkscape-font-specification:'Noto Sans TC'">[分段第二行]</tspan></text><text
   xml:space="preserve"
   style="font-weight:bold;font-size:34.6667px;line-height:1.25;font-family:sans-serif;-inkscape-font-specification:'sans-serif Bold';text-align:center;text-anchor:middle"
   x="289.6637"
   y="255.47447"
   id="text1-4-5"><tspan
     sodipodi:role="line"
     id="tspan1-0-0"
     x="289.6637"
     y="255.47447"
     style="font-style:normal;font-variant:normal;font-weight:normal;font-stretch:normal;font-size:34.6667px;font-family:'Noto Sans TC';-inkscape-font-specification:'Noto Sans TC'">[路線][編碼]</tspan></text></svg>
