<?xml version="1.0" encoding="UTF-8" standalone="no"?>
<!-- Created with Inkscape (http://www.inkscape.org/) -->

<svg
   width="112.171mm"
   height="100.223mm"
   viewBox="0 0 112.171 100.223"
   version="1.1"
   id="svg4201"
   inkscape:version="1.3.2 (091e20e, 2023-11-25)"
   sodipodi:docname="milestone.svg"
   xmlns:inkscape="http://www.inkscape.org/namespaces/inkscape"
   xmlns:sodipodi="http://sodipodi.sourceforge.net/DTD/sodipodi-0.dtd"
   xmlns="http://www.w3.org/2000/svg"
   xmlns:svg="http://www.w3.org/2000/svg">
  <sodipodi:namedview
     id="namedview4203"
     pagecolor="#ffffff"
     bordercolor="#666666"
     borderopacity="1.0"
     inkscape:pageshadow="2"
     inkscape:pageopacity="0.0"
     inkscape:pagecheckerboard="0"
     inkscape:document-units="mm"
     showgrid="false"
     width="112.171mm"
     inkscape:zoom="2.1921501"
     inkscape:cx="290.58229"
     inkscape:cy="185.2063"
     inkscape:window-width="1920"
     inkscape:window-height="1027"
     inkscape:window-x="1470"
     inkscape:window-y="25"
     inkscape:window-maximized="0"
     inkscape:current-layer="g1"
     inkscape:showpageshadow="2"
     inkscape:deskcolor="#d1d1d1" />
  <defs
     id="defs4198">
    <rect
       x="43.8815"
       y="328.35831"
       width="236.74212"
       height="17.017803"
       id="rect51847" />
    <rect
       x="112.06502"
       y="148.5193"
       width="228.16777"
       height="17.155392"
       id="rect60071" />
    <rect
       x="112.06502"
       y="148.5193"
       width="251.0392"
       height="15.571979"
       id="rect60071-7" />
    <rect
       x="112.06502"
       y="148.5193"
       width="130.48669"
       height="47.000435"
       id="rect60071-3" />
    <rect
       x="112.06502"
       y="148.5193"
       width="185.4211"
       height="34.257717"
       id="rect60071-3-8" />
    <rect
       x="112.06502"
       y="148.5193"
       width="102.78843"
       height="39.228832"
       id="rect60071-3-8-1" />
    <rect
       x="112.06502"
       y="148.5193"
       width="61.973736"
       height="39.497326"
       id="rect60071-3-8-1-6" />
    <rect
       x="112.06502"
       y="148.5193"
       width="228.16777"
       height="17.155392"
       id="rect60071-0" />
    <rect
       x="112.06502"
       y="148.5193"
       width="251.0392"
       height="15.571979"
       id="rect60071-7-9" />
    <rect
       x="112.06502"
       y="148.5193"
       width="130.48669"
       height="47.000435"
       id="rect60071-3-6" />
    <rect
       x="112.06502"
       y="148.5193"
       width="185.4211"
       height="34.257717"
       id="rect60071-3-8-3" />
    <rect
       x="112.06502"
       y="148.5193"
       width="102.78843"
       height="39.228832"
       id="rect60071-3-8-1-8" />
    <rect
       x="112.06502"
       y="148.5193"
       width="61.973736"
       height="39.497326"
       id="rect60071-3-8-1-6-5" />
    <rect
       x="43.8815"
       y="328.35831"
       width="229.75603"
       height="17.26886"
       id="rect51847-4" />
  </defs>
  <g
     inkscape:label="Layer 1"
     inkscape:groupmode="layer"
     id="layer1"
     style="display:inline">
    <path
       d="m 4.0883064,50.134871 c 0,0.552097 -0.447675,0.999772 -0.9997722,0.999772 -0.55245,0 -1.000125,-0.447675 -1.000125,-0.999772 0,-0.552097 0.447675,-1.000125 1.000125,-1.000125 0.5520972,0 0.9997722,0.448028 0.9997722,1.000125"
       style="fill:#000000;fill-opacity:1;fill-rule:evenodd;stroke:none;stroke-width:0.352778"
       id="path43" />
    <path
       d="m 110.08854,50.134871 c 0,0.552097 -0.44803,0.999772 -0.99977,0.999772 -0.55245,0 -1.00048,-0.447675 -1.00048,-0.999772 0,-0.552097 0.44803,-1.000125 1.00048,-1.000125 0.55174,0 0.99977,0.448028 0.99977,1.000125"
       style="fill:#000000;fill-opacity:1;fill-rule:evenodd;stroke:none;stroke-width:0.352778"
       id="path47" />
    <path
       d="M 0.08819444,100.13491 V 0.13440665 H 1.0879666"
       style="fill:none;stroke:#000000;stroke-width:0.176389;stroke-linecap:butt;stroke-linejoin:miter;stroke-miterlimit:10;stroke-dasharray:none;stroke-opacity:1"
       id="path51" />
    <path
       d="M 112.0828,100.13491 V 0.13440665 h -0.99977"
       style="fill:none;stroke:#000000;stroke-width:0.176389;stroke-linecap:butt;stroke-linejoin:miter;stroke-miterlimit:10;stroke-dasharray:none;stroke-opacity:1"
       id="path51-2" />
    <path
       d="m 112.17144,100.09995 h -1.03011"
       style="fill:#ffffff;fill-opacity:1;fill-rule:evenodd;stroke:#000000;stroke-width:0.200025;stroke-linecap:butt;stroke-linejoin:miter;stroke-miterlimit:22.926;stroke-dasharray:none;stroke-opacity:1"
       id="path63" />
    <path
       d="M 1.1713284,100.09995 H 0.14121731"
       style="fill:#ffffff;fill-opacity:1;fill-rule:evenodd;stroke:#000000;stroke-width:0.200025;stroke-linecap:butt;stroke-linejoin:miter;stroke-miterlimit:22.926;stroke-dasharray:none;stroke-opacity:1"
       id="path67" />
    <path
       d="M 18.088115,85.094828 V 15.17498 c 0,-1.672167 1.368425,-3.040239 3.040239,-3.040239 h 69.919848 c 1.67252,3.52e-4 3.040239,1.368072 3.040239,3.040239 v 69.919848 c 3.53e-4,1.672167 -1.367719,3.040239 -3.040239,3.040239 H 21.128354 c -1.671814,-3.53e-4 -3.039886,-1.368072 -3.040239,-3.040239"
       style="fill:#ffff00;fill-opacity:1;fill-rule:evenodd;stroke:none;stroke-width:0.353;stroke-miterlimit:22.926;stroke-dasharray:none"
       id="path603"
       inkscape:label="background_color" />
  </g>
  <g
     inkscape:groupmode="layer"
     id="layer2"
     inkscape:label="Layer 2">
    <g
       id="g1"
       transform="translate(0.5990426,0.94184732)">
      <path
         class="st3"
         d="M 75.379525,25.441018"
         id="path119"
         style="clip-rule:evenodd;fill:none;fill-rule:evenodd;stroke:#000000;stroke-width:0.264583;stroke-miterlimit:10" />
      <g
         id="g131"
         transform="matrix(0.22612532,-0.22612532,0.22612532,0.22612532,-63.764427,62.466778)"
         style="stroke-width:0.827367">
			<g
   id="g127"
   style="stroke-width:0.827367">
				
				
				
				<path
   d="M 236.56,319.37"
   id="path127"
   style="stroke-width:0.827367" />

				<line
   class="st4"
   x1="243.83"
   y1="316.10001"
   x2="343.82001"
   y2="314.78"
   id="line127"
   style="stroke:#000000;stroke-width:0.827367;stroke-miterlimit:10" />

			</g>

			<g
   id="g129"
   style="stroke-width:0.827367">
				<text
   transform="matrix(0.9999,-0.0132,0.0132,0.9999,341.3123,302.1271)"
   id="text129"
   style="stroke-width:0.827367"><tspan
     x="0"
     y="0"
     class="st16 st12 st17"
     id="tspan128"
     style="stroke-width:0.827367">k</tspan><tspan
     x="9.8900003"
     y="0"
     class="st16 st12 st17"
     id="tspan129"
     style="stroke-width:0.827367">m</tspan></text>

			</g>

			<text
   transform="matrix(0.9999,-0.0132,0.0132,0.9999,300.619,354.3299)"
   id="text131"
   style="stroke-width:0.827367"><tspan
     x="0"
     y="0"
     class="st11 st12 st15"
     id="tspan130"
     style="stroke-width:0.827367">k</tspan><tspan
     x="8.1499996"
     y="0"
     class="st11 st12 st15"
     id="tspan131"
     style="stroke-width:0.827367">m</tspan></text>

		</g>
      <text
         class="st22 st23 st24"
         id="text138"
         x="-13.005261"
         y="85.760254"
         style="font-size:4.07332px;font-family:MicrosoftJhengHeiLight;stroke:#221714;stroke-width:0.079375;stroke-miterlimit:10"
         transform="rotate(-45)">(緊急事故報案編碼)</text>
      <path
         class="st7"
         d="M 63.865229,16.01611 Z"
         id="path199"
         style="clip-rule:evenodd;fill:#003444;fill-rule:evenodd;stroke-width:0.264583" />
      <path
         class="st7"
         d="m 66.470191,14.075957 v 0 c -0.01329,-0.0047 -0.02466,-0.01608 -0.02719,-0.01351 -0.0073,0.0069 -0.01583,0.02038 -0.01366,0.02264 0.0048,0.0093 0.0162,0.011 0.02695,0.01834 0.0048,-0.0042 0.0085,-0.01355 0.01354,-0.02712 z"
         id="path200"
         style="clip-rule:evenodd;fill:#003444;fill-rule:evenodd;stroke-width:0.264583" />
      <g
         id="g202"
         transform="matrix(0.22612532,-0.22612532,0.22612532,0.22612532,-63.764427,62.466778)"
         style="stroke-width:0.827367">
		<text
   transform="matrix(0.6364,0.6364,-0.7071,0.7071,179.1764,285.435)"
   id="text202"
   style="stroke-width:0.827367"><tspan
     x="0"
     y="0"
     class="st29 st30 st31"
     id="tspan200"
     style="stroke-width:0.827367">林</tspan><tspan
     x="10.3"
     y="0"
     class="st29 st30 st31"
     id="tspan201"
     style="stroke-width:0.827367">業保育署新竹分</tspan><tspan
     x="82.440002"
     y="0"
     class="st29 st30"
     id="tspan202"
     style="stroke-width:0.827367">署</tspan></text>

	</g>
      <g
         id="g205"
         transform="matrix(0.22612532,-0.22612532,0.22612532,0.22612532,-63.764427,62.466778)"
         style="stroke-width:0.827367">
		<text
   transform="matrix(0.4897,-0.51,0.7213,0.6926,404.0741,284.7594)"
   id="text205"
   style="stroke-width:0.827367"><tspan
     x="0"
     y="0"
     class="st29 st32"
     id="tspan203"
     style="stroke-width:0.827367">共</tspan><tspan
     x="10.94"
     y="0"
     class="st29 st32"
     id="tspan204"
     style="stroke-width:0.827367">同承</tspan><tspan
     x="32.830002"
     y="0"
     class="st29 st32"
     id="tspan205"
     style="stroke-width:0.827367">作</tspan></text>

	</g>
      <g
         id="g215"
         transform="matrix(0.22612532,-0.22612532,0.22612532,0.22612532,-63.764427,62.466778)"
         style="stroke-width:0.827367">
		<g
   id="g211"
   style="stroke-width:0.827367">
			<path
   class="st7"
   d="m 396.17,293.38 c 0,0 -0.04,0.1 -0.03,0.15 0.03,0.22 0.11,0.79 0.27,0.94 0.03,-0.03 0.03,-0.08 0.02,-0.11 -0.01,-0.03 -0.04,-0.25 -0.04,-0.3 0,-0.05 0.02,-0.08 0.05,-0.1 0.03,-0.01 0.1,-0.01 0.16,-0.03 0.06,-0.02 0.15,-0.04 0.16,-0.04 0.01,0 -0.02,-0.19 -0.06,-0.26 -0.04,-0.06 -0.1,-0.12 -0.24,-0.16 -0.13,-0.04 -0.15,-0.05 -0.2,-0.07 -0.03,-0.01 -0.06,-0.03 -0.08,-0.04 z"
   id="path205"
   style="clip-rule:evenodd;fill:#003444;fill-rule:evenodd;stroke-width:0.827367" />

			<path
   class="st7"
   d="m 397.27,294.32 c -0.05,-0.06 -0.1,-0.13 -0.15,-0.2 0.01,0.04 0.02,0.08 0.03,0.1 0.01,0.03 0.07,0.07 0.12,0.1 z"
   id="path206"
   style="clip-rule:evenodd;fill:#003444;fill-rule:evenodd;stroke-width:0.827367" />

			<path
   class="st7"
   d="m 396.56,293.41 c -0.01,-0.01 -0.01,-0.02 -0.02,-0.02 -0.04,-0.05 -0.13,-0.16 -0.21,-0.26 -0.04,0.07 -0.09,0.14 -0.13,0.2 0.02,0.01 0.04,0.01 0.07,0.01 0.08,0 0.09,0.02 0.15,0.05 0.06,0.02 0.08,0.02 0.14,0.02 z"
   id="path207"
   style="clip-rule:evenodd;fill:#003444;fill-rule:evenodd;stroke-width:0.827367" />

			<path
   class="st7"
   d="m 399.55,295.15 c -0.04,0.05 -0.08,0.09 -0.12,0.14 0,0.01 0.01,0.02 0.01,0.03 l -0.07,0.04 c -0.25,0.27 -0.52,0.53 -0.81,0.76 l 0.14,0.06 c 0,0.01 -0.01,0.03 -0.01,0.04 v 0 c -0.08,-0.03 -0.17,0.03 -0.25,0 -0.07,0.05 -0.13,0.1 -0.2,0.15 0.01,0 0.03,0.01 0.04,0.01 0.11,0.04 0.22,0.07 0.33,0.09 0.17,0.04 0.25,-0.05 0.2,-0.22 0.15,0 0.28,-0.07 0.29,-0.17 0.04,-0.27 0.23,-0.43 0.42,-0.6 0.06,-0.06 0.15,-0.09 0.22,-0.14 0,-0.01 0.01,-0.03 0.01,-0.04 -0.09,-0.01 -0.16,-0.07 -0.2,-0.15 z"
   id="path208"
   style="clip-rule:evenodd;fill:#003444;fill-rule:evenodd;stroke-width:0.827367" />

			<path
   class="st7"
   d="m 397.95,296.55 c -0.38,0.23 -0.75,0.41 -1.09,0.54 0.06,0 0.1,0.01 0.14,0.01 0.14,-0.02 0.2,0.13 0.31,0.16 0.04,0.01 0.09,0.01 0.12,-0.01 0.02,-0.01 0.02,-0.07 0.01,-0.1 0,-0.05 -0.02,-0.1 -0.03,-0.15 0.04,-0.01 0.07,-0.02 0.1,-0.03 -0.01,-0.05 -0.02,-0.09 -0.04,-0.13 0.29,-0.01 0.32,0.01 0.38,0.22 0.11,-0.09 0.22,-0.17 0.33,-0.25 -0.01,-0.01 -0.02,-0.02 -0.02,-0.03 -0.03,0.01 -0.06,0.03 -0.05,0.03 -0.09,-0.1 -0.14,-0.19 -0.16,-0.26 z"
   id="path209"
   style="clip-rule:evenodd;fill:#003444;fill-rule:evenodd;stroke-width:0.827367" />

			<path
   class="st7"
   d="m 398.74,296.02 v 0 c 0.01,0.01 0.02,0.03 0.02,0.04 0.06,-0.03 0.12,-0.07 0.19,-0.1 0.01,0.01 0.01,0.01 0.02,0.02 -0.03,0.04 -0.05,0.07 -0.09,0.12 0.04,0.01 0.09,0.03 0.09,0.02 0.03,-0.08 0.05,-0.17 0.08,-0.26 -0.02,-0.01 -0.03,-0.02 -0.05,-0.03 -0.1,0.08 -0.18,0.13 -0.26,0.19 z"
   id="path210"
   style="clip-rule:evenodd;fill:#003444;fill-rule:evenodd;stroke-width:0.827367" />

			<path
   class="st7"
   d="m 400.1,294.56 v 0 c -0.01,0.02 -0.05,0.08 -0.04,0.09 0.04,0.05 0.1,0.09 0.16,0.12 0.02,0.01 0.06,-0.02 0.08,-0.04 -0.02,-0.02 -0.04,-0.05 -0.06,-0.07 -0.03,-0.03 -0.07,-0.05 -0.14,-0.1 z"
   id="path211"
   style="clip-rule:evenodd;fill:#003444;fill-rule:evenodd;stroke-width:0.827367" />

		</g>

		<g
   id="g214"
   style="stroke-width:0.827367">
			<path
   class="st7"
   d="m 387.63,288.97 c 0.06,-0.13 0.07,-0.29 0.12,-0.44 0.04,0.09 0,0.23 0.15,0.23 0.03,-0.09 0.05,-0.17 0.08,-0.26 -0.03,-0.01 -0.05,-0.01 -0.09,-0.02 0.02,-0.09 0.04,-0.19 0.06,-0.28 -0.1,-0.03 -0.12,-0.11 -0.05,-0.2 0.01,-0.01 0.02,-0.02 0.02,-0.04 l 0.03,0.02 c 0.05,-0.07 0.06,0.1 0.04,-0.09 l -0.03,-0.01 c 0.01,-0.02 0.01,-0.03 0.02,-0.05 0.07,-0.14 0.14,-0.28 0.21,-0.42 0.02,-0.04 0.04,-0.07 0.06,-0.11 0.15,0.09 0.2,0.03 0.25,-0.03 -0.06,-0.03 -0.12,-0.02 -0.22,-0.03 0.04,-0.07 0.08,-0.14 0.13,-0.2 0.01,-0.02 0.04,-0.03 0.05,-0.05 0.05,-0.07 0.09,-0.15 0.13,-0.22 0,0 -0.02,0.18 0.02,0.03 0.01,-0.02 0.01,-0.05 0,-0.07 0.01,-0.01 0.01,-0.02 0.02,-0.02 0.06,-0.08 0.14,-0.14 0.2,-0.21 l 0.05,-0.06 c 0.16,0.1 0.21,0.03 0.26,-0.02 -0.06,-0.03 -0.11,-0.02 -0.21,-0.03 0.22,-0.23 0.43,-0.45 0.64,-0.68 l 0.08,0.06 c 0.05,-0.07 0.06,0.1 0.04,-0.09 -0.03,-0.01 -0.06,-0.01 -0.08,-0.02 0.06,-0.07 0.12,-0.13 0.18,-0.2 0.12,-0.13 0.24,-0.22 0.41,-0.23 0.04,0 0.08,0.01 0.13,0.02 -0.01,-0.07 -0.02,-0.15 -0.04,-0.23 0.01,0 0.02,-0.01 0.03,-0.01 0.02,0.03 0.05,0.07 0.07,0.1 0.01,0 0.02,0 0.04,-0.01 -0.01,-0.06 -0.02,-0.12 -0.03,-0.22 0.09,-0.03 0.19,-0.06 0.3,-0.1 0.02,-0.01 0.05,-0.01 0.05,-0.03 0.07,-0.2 0.27,-0.12 0.4,-0.18 0.05,-0.03 0.09,-0.08 0.14,-0.11 0.08,-0.04 0.15,-0.07 0.23,-0.11 0.11,0.04 0.15,-0.01 0.19,-0.06 -0.01,-0.01 -0.02,-0.01 -0.03,-0.01 h 0.01 c 0.06,-0.02 0.12,-0.04 0.17,-0.07 0.07,-0.04 0.12,-0.06 0.16,-0.08 0.18,0.02 0.09,0.01 0.11,-0.02 0.04,0 0.1,0.01 0.18,0.03 -0.04,-0.04 -0.06,-0.06 -0.11,-0.11 0.14,-0.03 0.24,-0.15 0.36,-0.06 0.04,-0.02 0.09,-0.07 0.1,-0.06 0.05,0.05 0.11,0.1 0.14,0.17 0.02,0.04 -0.01,0.13 0.02,0.15 0.09,0.07 0.16,0.16 0.21,0.26 0.01,-0.01 0.02,-0.01 0.03,-0.02 0,-0.1 0.01,-0.2 -0.02,-0.29 -0.03,-0.09 -0.09,-0.18 -0.15,-0.28 0.09,-0.04 0.17,-0.08 0.24,-0.12 0.02,0.1 0.01,0.2 0.06,0.23 0.05,0.05 0.15,0.04 0.25,0.06 -0.06,-0.13 -0.01,-0.28 0.07,-0.32 0.07,-0.04 0.22,0.04 0.26,0.15 0.1,-0.15 0.17,-0.05 0.25,0.04 0.01,-0.01 0.02,-0.02 0.03,-0.02 -0.02,-0.05 -0.03,-0.1 -0.06,-0.18 0.21,-0.01 0.41,-0.02 0.61,-0.01 0.18,0 0.36,0.01 0.53,0.03 0.24,0.03 0.48,0.07 0.73,0.1 0.09,0.01 0.18,0 0.27,0.03 0.05,0.01 0.1,0.07 0.15,0.1 0.04,0.03 0.11,0.07 0.13,0.06 0.13,-0.11 0.21,0.02 0.3,0.06 0.28,0.11 0.55,0.21 0.82,0.35 0.32,0.16 0.63,0.35 0.94,0.56 -0.05,0 -0.1,0 -0.17,0 0.08,0.19 0.35,0.17 0.39,0.38 0.31,-0.05 0.51,0.16 0.69,0.38 0.03,0.04 0.07,0.07 0.11,0.1 0.04,0.04 0.06,0.1 0.08,0.15 0.05,0.03 0.12,0.05 0.15,0.09 0.3,0.41 0.62,0.82 0.89,1.25 0.2,0.34 0.39,0.7 0.45,1.1 0.02,0.1 0.11,0.19 0.14,0.3 0.05,0.2 0.09,0.4 0.11,0.61 0,0.03 -0.07,0.07 -0.11,0.11 0.04,0.01 0.07,0.01 0.11,0.02 0,0.09 0.01,0.19 0.01,0.28 0.01,0.08 -0.04,0.19 0.11,0.2 0.01,0 0.03,0.06 0.03,0.09 0.01,0.26 0.03,0.52 0.03,0.78 0,0.28 -0.01,0.57 -0.05,0.84 -0.05,0.35 -0.12,0.69 -0.2,1.03 -0.12,0.49 -0.32,0.96 -0.56,1.4 -0.08,0.15 -0.12,0.34 -0.38,0.28 0.05,0.07 0.08,0.12 0.12,0.18 -0.18,0.18 -0.17,0.58 -0.57,0.54 0,0.03 0.01,0.08 0.02,0.18 -0.08,-0.05 -0.12,-0.08 -0.16,-0.1 0.01,0 0.03,0 0.04,0 0,-0.1 0.05,-0.23 0.01,-0.29 -0.01,-0.01 -0.01,-0.02 -0.02,-0.03 1.09,-1.46 1.57,-3.34 1.32,-5.12 0.01,0.03 0.03,0.06 0.05,0.09 0.15,-0.12 -0.01,-0.23 0,-0.34 v 0 c -0.04,0.03 -0.07,0.07 -0.08,0.1 -0.02,-0.11 -0.04,-0.23 -0.07,-0.34 l 0.14,0.13 c 0.01,-0.09 0.01,-0.16 0.02,-0.25 -0.06,0.04 -0.11,0.07 -0.17,0.1 -0.26,-1.15 -0.83,-2.23 -1.74,-3.11 -1.13,-1.09 -2.29,-1.64 -3.37,-1.87 -0.7,-0.15 -1.15,-0.2 -1.23,-0.14 0.42,1.1 -0.74,1.07 -0.72,1.59 0.02,0.56 0.19,0.49 0.19,1.17 -0.01,0.68 -0.69,1.01 -0.5,1.6 0.45,0.6 0.66,0.36 0.9,0.99 0.14,0.38 -0.11,0.95 0.13,1.32 0.41,0.61 1.22,0.84 1.77,1.29 0.32,0.26 0.15,0.68 -0.05,1.03 l 0.24,0.3 v 0 c 0.09,0 0.1,0 0.1,-0.01 0,-0.01 -0.06,-0.04 -0.08,-0.05 -0.02,-0.01 -0.01,-0.06 -0.01,-0.06 0,0 -0.02,-0.02 -0.01,-0.03 0.01,-0.01 0.02,-0.02 0.02,-0.04 0,-0.02 0.02,-0.07 0.03,-0.08 0.01,-0.01 0.12,-0.04 0.16,0.01 0.04,0.05 0.01,0.15 0,0.17 -0.01,0.02 0,0.03 0.02,0.03 0.03,-0.01 0.11,-0.04 0.17,0 0.06,0.03 0.1,0.06 0.2,0.13 0.1,0.06 0.16,0.12 0.2,0.16 0.05,0.04 0.09,0.07 0.09,0.08 0,0.01 0,0.05 -0.04,0.06 -0.04,0.01 -0.05,0.01 -0.06,0 -0.01,-0.01 -0.03,-0.03 -0.02,-0.04 0.01,-0.01 0.01,-0.04 -0.01,-0.06 -0.02,-0.02 -0.07,-0.02 -0.13,-0.07 -0.06,-0.05 -0.09,-0.05 -0.12,-0.07 -0.04,-0.02 -0.13,0 -0.13,0.03 0,0.03 0.02,0.17 0.05,0.24 0.03,0.07 0.17,0.06 0.18,0.12 0.01,0.06 0,0.08 -0.05,0.09 -0.04,0.01 -0.11,-0.09 -0.11,-0.09 l 0.04,0.16 0.06,0.07 c 0.05,0.06 0.1,0.13 0.15,0.2 0,0 0.01,0.01 0.01,0.01 0.06,0.04 0.16,0.18 0.17,0.2 0.01,0.01 0.09,0.08 0.11,0.1 0.02,0.02 0.13,0.12 0.16,0.17 0.02,0.04 -0.01,0.09 -0.04,0.11 0.13,0.18 0.22,0.32 0.22,0.32 l -0.02,0.01 c 0,0 -0.09,-0.14 -0.22,-0.32 0,0 0,0 -0.01,0 -0.04,0 -0.07,-0.06 -0.08,-0.08 -0.01,-0.02 -0.01,-0.05 -0.04,-0.08 -0.03,-0.03 -0.08,-0.11 -0.1,-0.14 -0.02,-0.03 -0.1,-0.07 -0.18,-0.13 -0.08,-0.06 -0.19,-0.14 -0.22,-0.15 -0.02,-0.02 -0.1,-0.13 -0.13,-0.18 -0.03,-0.04 -0.06,-0.13 -0.11,-0.11 -0.06,0.02 -0.32,0.04 -0.32,0.04 -0.02,0.01 0.02,0.09 0.01,0.14 -0.01,0.05 -0.04,0.14 -0.03,0.21 0.01,0.04 0,0.08 -0.02,0.1 0.03,0.05 0.02,0.11 0,0.16 0,0 0,0.01 0,0.01 -0.02,0.17 -0.08,0.37 -0.02,0.49 0.01,0.02 0.03,0.05 0.04,0.08 0.8,0.79 -0.14,2 -0.84,2.13 -0.18,0.03 0.15,0 0.71,-0.17 l 0.01,0.01 0.04,-0.02 c 0.13,-0.04 0.27,-0.09 0.41,-0.14 l 0.33,0.28 c -0.1,0.02 -0.16,0.02 -0.21,0.04 -0.06,0.02 -0.11,0.07 -0.17,0.07 -0.08,0 -0.16,-0.02 -0.24,-0.04 0,-0.01 0,-0.03 0,-0.04 -0.03,0.02 -0.05,0.04 -0.09,0.07 0.04,0.03 0.07,0.05 0.13,0.1 -0.18,0.05 -0.33,0.09 -0.49,0.13 -0.03,-0.05 -0.06,-0.08 -0.09,-0.13 -0.05,0.16 -0.17,0.18 -0.29,0.21 -0.44,0.1 -0.9,0.12 -1.35,0.12 -0.27,0 -0.53,-0.01 -0.8,-0.04 l 0.05,-0.12 c -0.12,-0.02 -0.12,-0.03 -0.22,-0.07 0.07,0.13 0.07,0.05 0.07,0.18 -0.22,-0.03 -0.44,-0.07 -0.65,-0.13 -0.06,-0.01 -0.11,-0.03 -0.17,-0.04 0.01,-0.01 0.02,-0.02 0.02,-0.04 0.04,-0.1 0.02,-0.07 -0.01,-0.11 l -0.09,-0.04 -0.07,0.08 -0.03,0.04 c -0.06,-0.03 -0.11,-0.07 -0.16,-0.12 -0.04,-0.04 -0.15,-0.14 -0.26,-0.04 -0.02,0.02 -0.08,0.01 -0.13,0.01 0,-0.09 0,-0.17 -0.01,-0.29 -0.05,0.07 -0.08,0.1 -0.1,0.12 -0.09,0 -0.18,0 -0.27,-0.01 -0.05,-0.01 -0.16,0.01 -0.11,-0.11 0,-0.01 -0.05,-0.04 -0.08,-0.06 -0.01,0.02 -0.03,0.04 -0.05,0.07 -0.1,-0.04 -0.19,-0.08 -0.12,-0.23 -0.09,-0.04 -0.15,-0.2 -0.28,-0.04 -0.05,-0.16 -0.13,-0.22 -0.28,-0.16 -0.03,0.01 -0.08,-0.01 -0.11,-0.03 -0.13,-0.09 -0.26,-0.18 -0.42,-0.29 0.11,0.02 0.18,0.03 0.26,0.05 0.06,-0.12 -0.05,-0.17 -0.11,-0.21 -0.12,-0.07 -0.24,-0.18 -0.41,-0.01 -0.16,-0.34 -0.3,-0.66 -0.45,-0.98 -0.11,0.04 -0.14,0.08 -0.15,0.27 -0.14,-0.03 -0.52,-0.51 -0.83,-1.01 0.06,-0.01 0.11,-0.04 0.13,-0.1 0.02,-0.03 0.03,-0.07 0.02,-0.11 -0.02,-0.11 -0.02,-0.07 -0.07,-0.09 l -0.1,0.01 -0.02,0.11 -0.01,0.11 c -0.12,-0.19 -0.22,-0.38 -0.3,-0.55 0.05,0 0.1,0 0.15,0 -0.02,-0.02 -0.03,-0.03 -0.05,-0.05 0.01,-0.05 0.02,-0.1 0.01,-0.15 -0.01,-0.05 -0.04,-0.12 -0.08,-0.15 -0.08,-0.05 -0.25,0 -0.17,-0.19 0.01,-0.02 -0.07,-0.07 -0.12,-0.11 0.02,-0.02 0.04,-0.05 0.06,-0.09 -0.05,0 -0.08,0.01 -0.13,0.01 -0.08,-0.32 -0.16,-0.63 -0.24,-0.96 0.07,0.02 0.13,0.16 0.21,0.02 0.03,-0.05 0.02,-0.11 0.03,-0.16 -0.04,0.02 -0.08,0.03 -0.11,0.05 -0.08,0.06 -0.18,0.02 -0.19,-0.11 -0.01,-0.09 -0.02,-0.19 -0.03,-0.28 0.02,0.02 0.01,0.08 0.02,-0.01 0,-0.04 -0.01,-0.05 -0.03,-0.05 -0.03,-0.22 -0.05,-0.44 -0.06,-0.67 0,-0.09 -0.01,-0.19 -0.01,-0.28 0.11,-0.05 0.13,-0.07 0.23,-0.13 -0.05,-0.09 -0.11,-0.26 -0.22,-0.31 0.01,-0.1 0.02,-0.2 0.03,-0.3 0.15,0.01 0.04,0.04 0.14,-0.07 -0.08,-0.13 0.02,-0.08 -0.12,-0.09 0.02,-0.16 0.05,-0.32 0.09,-0.49 0.42,0.19 0.16,-0.32 0.23,-0.44 z"
   id="path212"
   style="clip-rule:evenodd;fill:#003444;fill-rule:evenodd;stroke-width:0.827367" />

			<path
   class="st8"
   d="m 390.56,291.3 2.37,2.31 -0.75,0.77 -2.17,-2.12 -0.37,0.38 2.54,2.48 2.23,-2.28 c 0.13,-0.14 0.2,-0.25 0.18,-0.35 -0.01,-0.1 -0.04,-0.18 -0.1,-0.26 -0.05,-0.08 -0.11,-0.15 -0.18,-0.22 l -2.09,-2.04 -0.37,0.38 2.01,1.96 c 0.06,0.06 0.09,0.11 0.1,0.16 0.01,0.05 -0.04,0.12 -0.14,0.22 l -0.53,0.54 -2.37,-2.31 z"
   id="path213"
   style="clip-rule:evenodd;fill:#fff100;fill-rule:evenodd;stroke:#fff100;stroke-width:0.124105;stroke-miterlimit:10" />

			<path
   class="st7"
   d="m 397.75,292.12 -0.31,-0.3 0.05,-0.05 -0.66,-0.65 2.52,-2.58 0.66,0.65 0.04,-0.04 0.31,0.3 z m 0.09,-1.43 -0.32,0.33 0.36,0.35 0.32,-0.33 z m 1.08,-0.39 -0.36,-0.35 -0.35,0.36 0.36,0.35 z m 0.73,-0.75 -0.36,-0.35 -0.37,0.38 0.36,0.35 z m -2.97,1.44 -1.61,-1.57 1.11,-1.13 1.24,1.21 c 0.04,0.04 0.09,0.1 0.15,0.17 0.05,0.07 0.07,0.15 0.07,0.24 -0.01,0.08 -0.09,0.2 -0.24,0.36 z m -0.23,-1.72 -0.33,-0.33 -0.38,0.39 0.33,0.33 z m 0.3,0.3 -0.38,0.39 0.36,0.35 0.22,-0.23 c 0.06,-0.06 0.09,-0.11 0.1,-0.15 0,-0.04 -0.01,-0.08 -0.05,-0.11 z m -0.43,-1.46 1.27,-1.3 1.35,1.32 c 0.06,0.06 0.1,0.12 0.13,0.19 0.03,0.07 0.04,0.14 0.03,0.21 -0.01,0.08 -0.11,0.21 -0.29,0.4 l -0.17,0.17 -0.32,-0.31 0.14,-0.15 c 0.05,-0.05 0.08,-0.09 0.08,-0.12 0,-0.03 -0.01,-0.06 -0.04,-0.09 l -0.05,-0.05 -0.56,0.57 0.14,0.14 c 0.03,0.03 0.07,0.07 0.11,0.13 0.04,0.05 0.06,0.12 0.07,0.19 0.01,0.07 -0.04,0.16 -0.14,0.27 l -0.17,0.18 -0.3,-0.29 0.03,-0.03 c 0.04,-0.04 0.03,-0.1 -0.04,-0.17 z m 1.13,0.4 0.16,0.15 0.56,-0.57 -0.16,-0.15 z m -0.47,-0.48 0.18,0.18 0.55,-0.56 -0.18,-0.18 z"
   id="path214"
   style="clip-rule:evenodd;fill:#003444;fill-rule:evenodd;stroke-width:0.827367" />

		</g>

	</g>
      <g
         id="g216"
         transform="matrix(0.22612532,-0.22612532,0.22612532,0.22612532,-63.764427,62.466778)"
         style="stroke-width:0.827367">
		<text
   transform="matrix(0.4881,-0.5116,0.7235,0.6903,380.8333,308.3109)"
   id="text216"
   style="stroke-width:0.827367"><tspan
     x="0"
     y="0"
     class="st29 st33"
     id="tspan215"
     style="stroke-width:0.827367"></tspan><tspan
     x="3.6600001"
     y="0"
     class="st29 st33"
     id="tspan216"
     style="stroke-width:0.827367">與</tspan></text>

	</g>
      <g
         id="g230"
         transform="matrix(0.22612532,-0.22612532,0.22612532,0.22612532,-63.764427,62.466778)"
         style="stroke-width:0.827367">
		<g
   id="g227"
   style="stroke-width:0.827367">
			<g
   id="g226"
   style="stroke-width:0.827367">
				<path
   class="st9"
   d="m 341,332.69 c -3.02,3.16 -2.9,8.17 0.26,11.19 3.16,3.02 8.17,2.9 11.19,-0.26 3.02,-3.16 2.9,-8.17 -0.26,-11.19 -3.16,-3.02 -8.17,-2.91 -11.19,0.26 m 10.85,10.35 c -2.7,2.83 -7.18,2.93 -10.01,0.23 -2.83,-2.7 -2.93,-7.18 -0.23,-10.01 2.7,-2.83 7.18,-2.93 10.01,-0.24 2.82,2.71 2.93,7.19 0.23,10.02"
   id="path216"
   style="fill:#361506;stroke-width:0.827367" />

				
					<rect
   x="344.29001"
   y="335.78"
   transform="matrix(0.6903,-0.7235,0.7235,0.6903,-139.5246,354.7231)"
   class="st9"
   width="0.66000003"
   height="9.1499996"
   id="rect216"
   style="fill:#361506;stroke-width:0.827367" />

				
					<rect
   x="340.76001"
   y="337.29001"
   transform="matrix(0.6903,-0.7235,0.7235,0.6903,-138.5605,351.5201)"
   class="st9"
   width="1.22"
   height="0.66000003"
   id="rect217"
   style="fill:#361506;stroke-width:0.827367" />

				
					<rect
   x="346.89001"
   y="343.14999"
   transform="matrix(0.6903,-0.7235,0.7235,0.6903,-140.8968,357.7735)"
   class="st9"
   width="1.22"
   height="0.66000003"
   id="rect218"
   style="fill:#361506;stroke-width:0.827367" />

				
					<rect
   x="343.60001"
   y="333.37"
   transform="matrix(0.6903,-0.7235,0.7235,0.6903,-134.563,353.0136)"
   class="st9"
   width="3.02"
   height="0.66000003"
   id="rect219"
   style="fill:#361506;stroke-width:0.827367" />

				
					<rect
   x="349.73999"
   y="339.23001"
   transform="matrix(0.6903,-0.7235,0.7235,0.6903,-136.8993,359.267)"
   class="st9"
   width="3.02"
   height="0.66000003"
   id="rect220"
   style="fill:#361506;stroke-width:0.827367" />

				
					<rect
   x="347.03"
   y="332.91"
   transform="matrix(0.6903,-0.7235,0.7235,0.6903,-136.599,355.8161)"
   class="st9"
   width="0.66000003"
   height="9.1499996"
   id="rect221"
   style="fill:#361506;stroke-width:0.827367" />

				
					<rect
   x="345.17001"
   y="335.09"
   transform="matrix(0.6903,-0.7235,0.7235,0.6903,-138.8236,354.985)"
   class="st9"
   width="0.22"
   height="9.1499996"
   id="rect222"
   style="fill:#361506;stroke-width:0.827367" />

				
					<rect
   x="346.60001"
   y="333.60001"
   transform="matrix(0.6903,-0.7235,0.7235,0.6903,-137.2993,355.5545)"
   class="st9"
   width="0.22"
   height="9.1499996"
   id="rect223"
   style="fill:#361506;stroke-width:0.827367" />

				
					<rect
   x="347.89001"
   y="332.23999"
   transform="matrix(0.6903,-0.7235,0.7235,0.6903,-135.9206,356.0696)"
   class="st9"
   width="0.22"
   height="9.1499996"
   id="rect224"
   style="fill:#361506;stroke-width:0.827367" />

				
					<rect
   x="343.87"
   y="339.04999"
   transform="matrix(0.6903,-0.7235,0.7235,0.6903,-138.5151,355.0177)"
   class="st9"
   width="3.22"
   height="0.55000001"
   id="rect225"
   style="fill:#361506;stroke-width:0.827367" />

				
					<rect
   x="345.64001"
   y="336.89001"
   transform="matrix(0.6903,-0.7235,0.7235,0.6903,-136.3125,355.8405)"
   class="st9"
   width="3.79"
   height="0.55000001"
   id="rect226"
   style="fill:#361506;stroke-width:0.827367" />

			</g>

		</g>

		<g
   id="g229"
   style="stroke-width:0.827367">
			<text
   transform="matrix(0.5402,-0.5626,0.7213,0.6926,355.388,333.5797)"
   id="text229"
   style="stroke-width:0.827367"><tspan
     x="0"
     y="0"
     class="st29 st32"
     id="tspan227"
     style="stroke-width:0.827367">和</tspan><tspan
     x="10.85"
     y="0"
     class="st29 st32"
     id="tspan228"
     style="stroke-width:0.827367">通集</tspan><tspan
     x="32.560001"
     y="0"
     class="st29 st32"
     id="tspan229"
     style="stroke-width:0.827367">團</tspan></text>

		</g>

	</g>
      <text
         xml:space="preserve"
         style="font-weight:bold;font-size:3.19789px;line-height:1.25;font-family:sans-serif;-inkscape-font-specification:'sans-serif Bold';text-align:center;text-anchor:middle;stroke-width:0.264583"
         x="-50.031769"
         y="22.131342"
         id="text231"
         transform="rotate(-90)"><tspan
           sodipodi:role="line"
           id="tspan231"
           x="-50.031769"
           y="22.131342"
           style="font-style:normal;font-variant:normal;font-weight:normal;font-stretch:normal;font-size:3.19789px;font-family:'Noto Sans TC';-inkscape-font-specification:'Noto Sans TC';stroke-width:0.264583">TWD97 X [X坐標] Y [Y坐標]</tspan></text>
      <text
         xml:space="preserve"
         style="font-weight:bold;font-size:3.19789px;line-height:1.25;font-family:sans-serif;-inkscape-font-specification:'sans-serif Bold';text-align:center;text-anchor:middle;stroke-width:0.264583"
         x="56.968941"
         y="16.310768"
         id="text231-5"><tspan
           sodipodi:role="line"
           id="tspan231-7"
           x="56.968941"
           y="16.310768"
           style="font-style:normal;font-variant:normal;font-weight:normal;font-stretch:normal;font-size:3.19789px;font-family:'Noto Sans TC';-inkscape-font-specification:'Noto Sans TC';stroke-width:0.264583">WGS [緯度] N  [經度] E</tspan></text>
      <text
         xml:space="preserve"
         style="font-style:normal;font-variant:normal;font-weight:bold;font-stretch:normal;font-size:6.65162px;line-height:1.25;font-family:'Noto Sans TC';-inkscape-font-specification:'Noto Sans TC Bold';text-align:center;text-anchor:middle;stroke-width:0.264583"
         x="3.6219182"
         y="55.298512"
         id="text232"
         transform="rotate(-45)"><tspan
           sodipodi:role="line"
           id="tspan232"
           x="3.621918"
           y="55.298512"
           style="font-style:normal;font-variant:normal;font-weight:bold;font-stretch:normal;font-size:6.65162px;font-family:'Noto Sans TC';-inkscape-font-specification:'Noto Sans TC Bold';stroke-width:0.264583">[路線名稱]</tspan></text>
      <text
         xml:space="preserve"
         style="font-style:normal;font-variant:normal;font-weight:bold;font-stretch:normal;font-size:5.543px;line-height:1.25;font-family:'Noto Sans TC';-inkscape-font-specification:'Noto Sans TC Bold';text-align:center;text-anchor:middle;stroke-width:0.264583"
         x="-9.4300737"
         y="96.048912"
         id="text232-5"
         transform="rotate(-45)"><tspan
           sodipodi:role="line"
           id="tspan232-8"
           x="-9.4300737"
           y="96.048912"
           style="font-style:normal;font-variant:normal;font-weight:bold;font-stretch:normal;font-size:5.543px;font-family:'Noto Sans TC';-inkscape-font-specification:'Noto Sans TC Bold';stroke-width:0.264583">[終點]</tspan></text>
      <text
         xml:space="preserve"
         style="font-style:normal;font-variant:normal;font-weight:bold;font-stretch:normal;font-size:11.4143px;line-height:1.25;font-family:'Noto Sans TC';-inkscape-font-specification:'Noto Sans TC Bold';text-align:center;text-anchor:middle;stroke-width:0.264583"
         x="11.327127"
         y="84.143906"
         id="text232-5-7"
         transform="matrix(0.60892745,-0.60892745,0.82111588,0.82111588,0,0)"><tspan
           sodipodi:role="line"
           id="tspan232-8-3"
           x="11.327127"
           y="84.143906"
           style="font-style:normal;font-variant:normal;font-weight:normal;font-stretch:normal;font-size:11.4143px;font-family:'Noto Sans TC';-inkscape-font-specification:'Noto Sans TC';stroke-width:0.264583">[D2]</tspan></text>
      <text
         xml:space="preserve"
         style="font-style:normal;font-variant:normal;font-weight:bold;font-stretch:normal;font-size:4.26385px;line-height:1.25;font-family:'Noto Sans TC';-inkscape-font-specification:'Noto Sans TC Bold';text-align:center;text-anchor:middle;stroke-width:0.264583"
         x="3.1293998"
         y="106.16405"
         id="text232-5-3"
         transform="rotate(-45)"><tspan
           sodipodi:role="line"
           id="tspan232-8-2"
           x="3.1293995"
           y="106.16405"
           style="font-style:normal;font-variant:normal;font-weight:bold;font-stretch:normal;font-size:4.26385px;font-family:'Noto Sans TC';-inkscape-font-specification:'Noto Sans TC Bold';stroke-width:0.264583">[起點]</tspan></text>
      <text
         xml:space="preserve"
         style="font-style:normal;font-variant:normal;font-weight:bold;font-stretch:normal;font-size:5.11663px;line-height:1.25;font-family:'Noto Sans TC';-inkscape-font-specification:'Noto Sans TC Bold';text-align:center;text-anchor:middle;stroke-width:0.264583"
         x="1.6881487"
         y="112.34068"
         id="text232-5-3-0"
         transform="rotate(-45)"><tspan
           sodipodi:role="line"
           id="tspan232-8-2-4"
           x="1.6881487"
           y="112.34068"
           style="font-style:normal;font-variant:normal;font-weight:normal;font-stretch:normal;font-size:5.11663px;font-family:'Noto Sans TC';-inkscape-font-specification:'Noto Sans TC';stroke-width:0.264583">[D1]</tspan></text>
      <text
         xml:space="preserve"
         style="font-weight:bold;font-size:3.83747px;line-height:1.25;font-family:sans-serif;-inkscape-font-specification:'sans-serif Bold';text-align:center;text-anchor:middle;stroke-width:0.264583"
         x="3.6967306"
         y="64.896385"
         id="text1"
         transform="rotate(-45)"><tspan
           sodipodi:role="line"
           id="tspan1"
           x="3.6967306"
           y="64.896385"
           style="font-style:normal;font-variant:normal;font-weight:normal;font-stretch:normal;font-size:3.83747px;font-family:'Noto Sans TC';-inkscape-font-specification:'Noto Sans TC';stroke-width:0.264583">[分段第一行]</tspan></text>
      <text
         xml:space="preserve"
         style="font-weight:bold;font-size:3.83747px;line-height:1.25;font-family:sans-serif;-inkscape-font-specification:'sans-serif Bold';text-align:center;text-anchor:middle;stroke-width:0.264583"
         x="3.6967306"
         y="69.677017"
         id="text1-4"
         transform="rotate(-45)"><tspan
           sodipodi:role="line"
           id="tspan1-0"
           x="3.6967306"
           y="69.677017"
           style="font-style:normal;font-variant:normal;font-weight:normal;font-stretch:normal;font-size:3.83747px;font-family:'Noto Sans TC';-inkscape-font-specification:'Noto Sans TC';stroke-width:0.264583">[分段第二行]</tspan></text>
      <text
         xml:space="preserve"
         style="font-weight:bold;font-size:11.086px;line-height:1.25;font-family:sans-serif;-inkscape-font-specification:'sans-serif Bold';text-align:center;text-anchor:middle;stroke-width:0.264583"
         x="3.372473"
         y="80.780479"
         id="text1-4-5"
         transform="rotate(-45)"><tspan
           sodipodi:role="line"
           id="tspan1-0-0"
           x="3.3724728"
           y="80.780479"
           style="font-style:normal;font-variant:normal;font-weight:normal;font-stretch:normal;font-size:11.086px;font-family:'Noto Sans TC';-inkscape-font-specification:'Noto Sans TC';stroke-width:0.264583">[路線][編碼]</tspan></text>
    </g>
  </g>
  <g
     inkscape:groupmode="layer"
     id="layer3"
     inkscape:label="Layer 3"
     style="display:none">
    <path
       d="M 10.990544,100.13456 C 8.2875607,100.13421 6.0886969,97.934991 6.0883441,95.23236 L 6.0886969,5.0373149 c 0,-2.7029833 2.1988638,-4.90219992 4.9018471,-4.90219992 L 101.18629,0.1347622 c 2.70264,0 4.90185,2.1995694 4.90185,4.9025527 V 95.23236 c 0,2.702983 -2.19921,4.9022 -4.90185,4.9022 z"
       style="display:inline;fill:none;stroke:#000000;stroke-width:0.176;stroke-linecap:butt;stroke-linejoin:miter;stroke-miterlimit:22.926;stroke-dasharray:none;stroke-opacity:1"
       id="path1403"
       inkscape:label="outline" />
    <path
       d="m 22.509526,16.524049 c 0.289827,-0.289826 0.759754,-0.289801 1.049579,2.5e-5 0.289828,0.289826 0.289851,0.759753 2.5e-5,1.049579 -0.289826,0.289826 -0.759777,0.289826 -1.049604,0 -0.289826,-0.289826 -0.289826,-0.759778 0,-1.049604 z"
       style="display:inline;fill:#b2b2b2;fill-opacity:1;fill-rule:evenodd;stroke:#000000;stroke-width:0.05715;stroke-linecap:butt;stroke-linejoin:miter;stroke-dasharray:none;stroke-opacity:1"
       id="path144"
       inkscape:label="hole_1" />
    <path
       d="m 86.107072,79.085273 2.612037,2.612036 c 0.04255,0.03359 0.0838,0.07054 0.123551,0.110304 0.404661,0.404661 0.500463,0.968934 0.213229,1.256169 -0.287235,0.287233 -0.851533,0.191456 -1.256194,-0.213205 l -0.0066,0.0066 -2.728969,-2.728968 c -0.404685,-0.404685 -0.500438,-0.96896 -0.213204,-1.256193 0.287233,-0.287234 0.851482,-0.191455 1.256167,0.213229 z"
       style="display:inline;fill:#b2b2b2;fill-opacity:1;fill-rule:evenodd;stroke:#000000;stroke-width:0.05715;stroke-linecap:butt;stroke-linejoin:miter;stroke-dasharray:none;stroke-opacity:1"
       id="path172"
       inkscape:label="hole_2" />
  </g>
</svg>
