<?xml version="1.0" encoding="UTF-8" standalone="no"?>
<!-- Created with Inkscape (http://www.inkscape.org/) -->

<svg
   width="112.171mm"
   height="100.223mm"
   viewBox="0 0 112.171 100.223"
   version="1.1"
   id="svg4201"
   inkscape:version="1.2 (1:1.2.1+202207142221+cd75a1ee6d)"
   sodipodi:docname="hazard.svg"
   xml:space="preserve"
   xmlns:inkscape="http://www.inkscape.org/namespaces/inkscape"
   xmlns:sodipodi="http://sodipodi.sourceforge.net/DTD/sodipodi-0.dtd"
   xmlns="http://www.w3.org/2000/svg"
   xmlns:svg="http://www.w3.org/2000/svg"><sodipodi:namedview
     id="namedview4203"
     pagecolor="#ffffff"
     bordercolor="#666666"
     borderopacity="1.0"
     inkscape:pageshadow="2"
     inkscape:pageopacity="0.0"
     inkscape:pagecheckerboard="0"
     inkscape:document-units="mm"
     showgrid="false"
     width="112.171mm"
     inkscape:zoom="1.096075"
     inkscape:cx="180.64457"
     inkscape:cy="167.87172"
     inkscape:window-width="1920"
     inkscape:window-height="1043"
     inkscape:window-x="1920"
     inkscape:window-y="0"
     inkscape:window-maximized="1"
     inkscape:current-layer="layer1"
     inkscape:showpageshadow="2"
     inkscape:deskcolor="#d1d1d1"
     inkscape:lockguides="false" /><defs
     id="defs4198"><rect
       x="43.8815"
       y="328.35831"
       width="236.74212"
       height="17.017803"
       id="rect51847" /><rect
       x="43.8815"
       y="328.35831"
       width="229.75603"
       height="17.26886"
       id="rect51847-4" /></defs><g
     inkscape:label="Layer 1"
     inkscape:groupmode="layer"
     id="layer1"
     style="display:inline"><path
       d="m 4.0883064,50.134871 c 0,0.552097 -0.447675,0.999772 -0.9997722,0.999772 -0.55245,0 -1.000125,-0.447675 -1.000125,-0.999772 0,-0.552097 0.447675,-1.000125 1.000125,-1.000125 0.5520972,0 0.9997722,0.448028 0.9997722,1.000125"
       style="fill:#000000;fill-opacity:1;fill-rule:evenodd;stroke:none;stroke-width:0.352778"
       id="path43" /><path
       d="m 110.08854,50.134871 c 0,0.552097 -0.44803,0.999772 -0.99977,0.999772 -0.55245,0 -1.00048,-0.447675 -1.00048,-0.999772 0,-0.552097 0.44803,-1.000125 1.00048,-1.000125 0.55174,0 0.99977,0.448028 0.99977,1.000125"
       style="fill:#000000;fill-opacity:1;fill-rule:evenodd;stroke:none;stroke-width:0.352778"
       id="path47" /><path
       d="M 0.08819444,100.13491 V 0.13440665 H 1.0879666"
       style="fill:none;stroke:#000000;stroke-width:0.176389;stroke-linecap:butt;stroke-linejoin:miter;stroke-miterlimit:10;stroke-dasharray:none;stroke-opacity:1"
       id="path51" /><path
       d="M 112.0828,100.13491 V 0.13440665 h -0.99977"
       style="fill:none;stroke:#000000;stroke-width:0.176389;stroke-linecap:butt;stroke-linejoin:miter;stroke-miterlimit:10;stroke-dasharray:none;stroke-opacity:1"
       id="path51-2" /><path
       d="m 112.17144,100.09995 h -1.03011"
       style="fill:#ffffff;fill-opacity:1;fill-rule:evenodd;stroke:#000000;stroke-width:0.200025;stroke-linecap:butt;stroke-linejoin:miter;stroke-miterlimit:22.926;stroke-dasharray:none;stroke-opacity:1"
       id="path63" /><path
       d="M 1.1713284,100.09995 H 0.14121731"
       style="fill:#ffffff;fill-opacity:1;fill-rule:evenodd;stroke:#000000;stroke-width:0.200025;stroke-linecap:butt;stroke-linejoin:miter;stroke-miterlimit:22.926;stroke-dasharray:none;stroke-opacity:1"
       id="path67" /><path
       d="m 18.087938,85.095247 0,-69.919848 c -1e-6,-1.672166 1.368425,-3.040239 3.040239,-3.040239 l 69.919846,3e-6 c 1.672519,3.52e-4 3.040238,1.368072 3.040239,3.040239 l 4e-6,69.919849 c 3.53e-4,1.672166 -1.367719,3.040239 -3.040238,3.040239 l -69.91985,-3e-6 c -1.671816,-3.54e-4 -3.039886,-1.368072 -3.04024,-3.04024"
       style="fill:#ffff00;fill-opacity:1;fill-rule:evenodd;stroke:none;stroke-width:0.353;stroke-miterlimit:22.926;stroke-dasharray:none"
       id="path603"
       inkscape:label="background_color" /><g
       id="g2345"
       transform="matrix(0.57159907,-0.57159907,0.57159907,0.57159907,17.589308,50.467223)"
       style="stroke-width:1.23707"
       inkscape:label="mark" /><path
       id="path3664"
       style="fill:#000000;stroke-width:1.32292;stroke-linejoin:round;stroke-dasharray:2.64582, 1.32292"
       d="m 31.448444,25.497424 a 5.9530978,7.8691275 45 0 0 -1.354884,9.773681 5.9530978,7.8691275 45 0 0 0.754638,0.603216 l 30.263239,22.81285 a 2.4941013,2.4941013 0 0 0 0.004,0.0045 2.4941013,2.4941013 0 0 0 3.527249,1e-6 2.4941013,2.4941013 0 0 0 5e-6,-3.527255 2.4941013,2.4941013 0 0 0 -0.002,-0.002 L 41.457681,24.37419 l -0.01263,0.01312 a 5.9530978,7.8691275 45 0 0 -0.222946,-0.244682 5.9530978,7.8691275 45 0 0 -9.773688,1.35489 z m 36.164015,36.164015 a 5.9530978,5.9530978 0 0 0 6e-6,8.4188 5.9530978,5.9530978 0 0 0 8.419041,2.46e-4 5.9530978,5.9530978 0 0 0 5e-6,-8.419291 5.9530978,5.9530978 0 0 0 -8.419052,2.45e-4 z" /></g><g
     inkscape:groupmode="layer"
     id="layer2"
     inkscape:label="Layer 2"><text
       xml:space="preserve"
       transform="matrix(0.26458333,0,0,0.26458333,11.313854,-4.8146189)"
       id="text51845"
       style="font-size:13.3333px;line-height:1.25;font-family:'Noto Sans CJK TC';-inkscape-font-specification:'Noto Sans CJK TC';text-align:center;letter-spacing:0px;word-spacing:0px;white-space:pre;shape-inside:url(#rect51847)"
       x="92.812935"
       y="0"
       inkscape:label="notes_bottom_left"><tspan
         x="128.91877"
         y="341.75739"
         id="tspan331">左下角備註</tspan></text><text
       xml:space="preserve"
       transform="matrix(0,-0.26458333,0.26458333,0,1.1264583,89.47856)"
       id="text51845-1"
       style="font-size:13.3333px;line-height:1.25;font-family:'Noto Sans CJK TC';-inkscape-font-specification:'Noto Sans CJK TC';text-align:center;letter-spacing:0px;word-spacing:0px;white-space:pre;shape-inside:url(#rect51847-4)"
       x="92.812935"
       y="0"
       inkscape:label="notes_bottom_right"><tspan
         x="125.4256"
         y="341.75739"
         id="tspan333">右下角備註</tspan></text></g><g
     inkscape:groupmode="layer"
     id="layer3"
     inkscape:label="Layer 3"
     style="display:none"><path
       d="M 10.990544,100.13456 C 8.2875607,100.13421 6.0886969,97.934991 6.0883441,95.23236 L 6.0886969,5.0373149 c 0,-2.7029833 2.1988638,-4.90219992 4.9018471,-4.90219992 L 101.18629,0.1347622 c 2.70264,0 4.90185,2.1995694 4.90185,4.9025527 V 95.23236 c 0,2.702983 -2.19921,4.9022 -4.90185,4.9022 z"
       style="display:inline;fill:none;stroke:#000000;stroke-width:0.176;stroke-linecap:butt;stroke-linejoin:miter;stroke-miterlimit:22.926;stroke-dasharray:none;stroke-opacity:1"
       id="path1403"
       inkscape:label="outline" /><path
       d="m 22.509526,16.524049 c 0.289827,-0.289826 0.759754,-0.289801 1.049579,2.5e-5 0.289828,0.289826 0.289851,0.759753 2.5e-5,1.049579 -0.289826,0.289826 -0.759777,0.289826 -1.049604,0 -0.289826,-0.289826 -0.289826,-0.759778 0,-1.049604 z"
       style="display:inline;fill:#b2b2b2;fill-opacity:1;fill-rule:evenodd;stroke:#000000;stroke-width:0.05715;stroke-linecap:butt;stroke-linejoin:miter;stroke-dasharray:none;stroke-opacity:1"
       id="path144"
       inkscape:label="hole_1" /><path
       d="m 86.107072,79.085273 2.612037,2.612036 c 0.04255,0.03359 0.0838,0.07054 0.123551,0.110304 0.404661,0.404661 0.500463,0.968934 0.213229,1.256169 -0.287235,0.287233 -0.851533,0.191456 -1.256194,-0.213205 l -0.0066,0.0066 -2.728969,-2.728968 c -0.404685,-0.404685 -0.500438,-0.96896 -0.213204,-1.256193 0.287233,-0.287234 0.851482,-0.191455 1.256167,0.213229 z"
       style="display:inline;fill:#b2b2b2;fill-opacity:1;fill-rule:evenodd;stroke:#000000;stroke-width:0.05715;stroke-linecap:butt;stroke-linejoin:miter;stroke-dasharray:none;stroke-opacity:1"
       id="path172"
       inkscape:label="hole_2" /></g></svg>
