<?xml version="1.0" encoding="UTF-8" standalone="no"?>
<!-- Created with Inkscape (http://www.inkscape.org/) -->

<svg
   width="112.171mm"
   height="100.223mm"
   viewBox="0 0 112.171 100.223"
   version="1.1"
   id="svg4201"
   inkscape:version="1.1.1 (1:1.1+202109281949+c3084ef5ed)"
   sodipodi:docname="milestone.svg"
   xmlns:inkscape="http://www.inkscape.org/namespaces/inkscape"
   xmlns:sodipodi="http://sodipodi.sourceforge.net/DTD/sodipodi-0.dtd"
   xmlns="http://www.w3.org/2000/svg"
   xmlns:svg="http://www.w3.org/2000/svg">
  <sodipodi:namedview
     id="namedview4203"
     pagecolor="#ffffff"
     bordercolor="#666666"
     borderopacity="1.0"
     inkscape:pageshadow="2"
     inkscape:pageopacity="0.0"
     inkscape:pagecheckerboard="0"
     inkscape:document-units="mm"
     showgrid="false"
     width="112.171mm"
     inkscape:zoom="1.5500842"
     inkscape:cx="213.85935"
     inkscape:cy="216.76242"
     inkscape:window-width="1920"
     inkscape:window-height="1043"
     inkscape:window-x="1920"
     inkscape:window-y="0"
     inkscape:window-maximized="1"
     inkscape:current-layer="layer2" />
  <defs
     id="defs4198">
    <rect
       x="43.8815"
       y="328.35831"
       width="236.74212"
       height="17.017803"
       id="rect51847" />
    <rect
       x="112.06502"
       y="148.5193"
       width="228.16777"
       height="17.155392"
       id="rect60071" />
    <rect
       x="112.06502"
       y="148.5193"
       width="251.0392"
       height="15.571979"
       id="rect60071-7" />
    <rect
       x="112.06502"
       y="148.5193"
       width="130.48669"
       height="47.000435"
       id="rect60071-3" />
    <rect
       x="112.06502"
       y="148.5193"
       width="185.4211"
       height="34.257717"
       id="rect60071-3-8" />
    <rect
       x="112.06502"
       y="148.5193"
       width="102.78843"
       height="39.228832"
       id="rect60071-3-8-1" />
    <rect
       x="112.06502"
       y="148.5193"
       width="61.973736"
       height="39.497326"
       id="rect60071-3-8-1-6" />
    <rect
       x="112.06502"
       y="148.5193"
       width="228.16777"
       height="17.155392"
       id="rect60071-0" />
    <rect
       x="112.06502"
       y="148.5193"
       width="251.0392"
       height="15.571979"
       id="rect60071-7-9" />
    <rect
       x="112.06502"
       y="148.5193"
       width="130.48669"
       height="47.000435"
       id="rect60071-3-6" />
    <rect
       x="112.06502"
       y="148.5193"
       width="185.4211"
       height="34.257717"
       id="rect60071-3-8-3" />
    <rect
       x="112.06502"
       y="148.5193"
       width="102.78843"
       height="39.228832"
       id="rect60071-3-8-1-8" />
    <rect
       x="112.06502"
       y="148.5193"
       width="61.973736"
       height="39.497326"
       id="rect60071-3-8-1-6-5" />
    <rect
       x="43.8815"
       y="328.35831"
       width="229.75603"
       height="17.26886"
       id="rect51847-4" />
  </defs>
  <g
     inkscape:label="Layer 1"
     inkscape:groupmode="layer"
     id="layer1"
     style="display:inline">
    <path
       d="m 4.0883064,50.134871 c 0,0.552097 -0.447675,0.999772 -0.9997722,0.999772 -0.55245,0 -1.000125,-0.447675 -1.000125,-0.999772 0,-0.552097 0.447675,-1.000125 1.000125,-1.000125 0.5520972,0 0.9997722,0.448028 0.9997722,1.000125"
       style="fill:#000000;fill-opacity:1;fill-rule:evenodd;stroke:none;stroke-width:0.352778"
       id="path43" />
    <path
       d="m 110.08854,50.134871 c 0,0.552097 -0.44803,0.999772 -0.99977,0.999772 -0.55245,0 -1.00048,-0.447675 -1.00048,-0.999772 0,-0.552097 0.44803,-1.000125 1.00048,-1.000125 0.55174,0 0.99977,0.448028 0.99977,1.000125"
       style="fill:#000000;fill-opacity:1;fill-rule:evenodd;stroke:none;stroke-width:0.352778"
       id="path47" />
    <path
       d="M 0.08819444,100.13491 V 0.13440665 H 1.0879666"
       style="fill:none;stroke:#000000;stroke-width:0.176389;stroke-linecap:butt;stroke-linejoin:miter;stroke-miterlimit:10;stroke-dasharray:none;stroke-opacity:1"
       id="path51" />
    <path
       d="M 112.0828,100.13491 V 0.13440665 h -0.99977"
       style="fill:none;stroke:#000000;stroke-width:0.176389;stroke-linecap:butt;stroke-linejoin:miter;stroke-miterlimit:10;stroke-dasharray:none;stroke-opacity:1"
       id="path51-2" />
    <path
       d="m 112.17144,100.09995 h -1.03011"
       style="fill:#ffffff;fill-opacity:1;fill-rule:evenodd;stroke:#000000;stroke-width:0.200025;stroke-linecap:butt;stroke-linejoin:miter;stroke-miterlimit:22.926;stroke-dasharray:none;stroke-opacity:1"
       id="path63" />
    <path
       d="M 1.1713284,100.09995 H 0.14121731"
       style="fill:#ffffff;fill-opacity:1;fill-rule:evenodd;stroke:#000000;stroke-width:0.200025;stroke-linecap:butt;stroke-linejoin:miter;stroke-miterlimit:22.926;stroke-dasharray:none;stroke-opacity:1"
       id="path67" />
    <path
       d="M 18.088115,85.094828 V 15.17498 c 0,-1.672167 1.368425,-3.040239 3.040239,-3.040239 h 69.919848 c 1.67252,3.52e-4 3.040239,1.368072 3.040239,3.040239 v 69.919848 c 3.53e-4,1.672167 -1.367719,3.040239 -3.040239,3.040239 H 21.128354 c -1.671814,-3.53e-4 -3.039886,-1.368072 -3.040239,-3.040239"
       style="fill:#ffff00;fill-opacity:1;fill-rule:evenodd;stroke:none;stroke-width:0.353;stroke-miterlimit:22.926;stroke-dasharray:none"
       id="path603"
       inkscape:label="background_color" />
  </g>
  <g
     inkscape:groupmode="layer"
     id="layer2"
     inkscape:label="Layer 2">
    <text
       xml:space="preserve"
       transform="matrix(0.24684943,-0.24684943,0.24684943,0.24684943,-47.030075,58.607059)"
       id="text60069"
       style="font-size:12px;line-height:1.25;font-family:'Noto Sans CJK TC';-inkscape-font-specification:'Noto Sans CJK TC';text-align:center;letter-spacing:0px;word-spacing:0px;white-space:pre;shape-inside:url(#rect60071-0);display:inline;stroke-width:0.757906"
       x="114.27578"
       y="0"
       inkscape:label="segment_line_1"><tspan
         x="196.14849"
         y="160.57953"
         id="tspan102">分段第一行</tspan></text>
    <text
       xml:space="preserve"
       transform="matrix(0.24684943,-0.24684943,0.24684943,0.24684943,-45.733162,65.549688)"
       id="text60069-5"
       style="font-size:12px;line-height:1.25;font-family:'Noto Sans CJK TC';-inkscape-font-specification:'Noto Sans CJK TC';text-align:center;letter-spacing:0px;word-spacing:0px;white-space:pre;shape-inside:url(#rect60071-7-9);display:inline;stroke-width:0.757906"
       x="166.67967"
       y="0"
       inkscape:label="segment_line_2"><tspan
         x="207.58404"
         y="160.57953"
         id="tspan104">分段第二行</tspan></text>
    <text
       xml:space="preserve"
       transform="matrix(0.24684943,-0.24684943,0.24684943,0.24684943,-47.961177,33.571535)"
       id="text60069-8"
       style="font-size:37.3333px;line-height:1.25;font-family:'Noto Sans CJK TC';-inkscape-font-specification:'Noto Sans CJK TC';text-align:center;letter-spacing:0px;word-spacing:0px;white-space:pre;shape-inside:url(#rect60071-3-6);display:inline;stroke-width:0.757906"
       x="98.5438"
       y="0"
       inkscape:label="trail_number"><tspan
         x="139.97439"
         y="186.0395"
         id="tspan108"><tspan
           style="font-weight:bold"
           id="tspan106">路線</tspan></tspan></text>
    <text
       xml:space="preserve"
       transform="matrix(0.24684943,-0.24684943,0.24684943,0.24684943,-29.068578,66.023626)"
       id="text60069-8-3"
       style="font-size:26.6667px;line-height:1.25;font-family:'Noto Sans CJK TC';-inkscape-font-specification:'Noto Sans CJK TC';text-align:center;letter-spacing:0px;word-spacing:0px;white-space:pre;shape-inside:url(#rect60071-3-8-3);display:inline;stroke-width:0.757906"
       x="98.5438"
       y="0"
       inkscape:label="landmark"><tspan
         x="151.44209"
         y="175.31957"
         id="tspan112"><tspan
           style="font-weight:bold"
           id="tspan110">地標名稱</tspan></tspan></text>
    <text
       xml:space="preserve"
       transform="matrix(0.24684943,-0.24684943,0.24684943,0.24684943,-11.122285,63.662899)"
       id="text60069-8-3-8"
       style="font-size:32px;line-height:1.25;font-family:'Noto Sans CJK TC';-inkscape-font-specification:'Noto Sans CJK TC';text-align:center;letter-spacing:0px;word-spacing:0px;white-space:pre;shape-inside:url(#rect60071-3-8-1-8);display:inline;stroke-width:0.757906"
       x="98.5438"
       y="0"
       inkscape:label="numerator"><tspan
         x="131.45905"
         y="180.67953"
         id="tspan116"><tspan
           style="font-weight:bold"
           id="tspan114">里程</tspan></tspan></text>
    <text
       xml:space="preserve"
       transform="matrix(0.24684943,-0.24684943,0.24684943,0.24684943,3.8109357,68.477638)"
       id="text60069-8-3-8-4"
       style="font-size:18.6667px;line-height:1.25;font-family:'Noto Sans CJK TC';-inkscape-font-specification:'Noto Sans CJK TC';text-align:center;letter-spacing:0px;word-spacing:0px;white-space:pre;shape-inside:url(#rect60071-3-8-1-6-5);display:inline;stroke-width:0.757906"
       x="98.5438"
       y="0"
       inkscape:label="denominator"><tspan
         x="115.05176"
         y="167.27957"
         id="tspan118">總里程</tspan></text>
    <rect
       style="display:inline;fill:#000000;stroke:none;stroke-width:1.32292;stroke-linejoin:round;stroke-dasharray:2.64583, 1.32292"
       id="rect105957"
       width="17.677732"
       height="0.58687705"
       x="-4.6065216"
       y="102.19773"
       transform="rotate(-45)" />
    <text
       xml:space="preserve"
       transform="matrix(0.26458333,0,0,0.26458333,11.313854,-4.8146189)"
       id="text51845"
       style="font-size:13.3333px;line-height:1.25;font-family:'Noto Sans CJK TC';-inkscape-font-specification:'Noto Sans CJK TC';text-align:start;letter-spacing:0px;word-spacing:0px;white-space:pre;shape-inside:url(#rect51847)"
       x="59.999737"
       y="0"
       inkscape:label="notes_bottom_left"><tspan
         x="43.880859"
         y="341.75739"
         id="tspan120">左下角備註</tspan></text>
    <text
       xml:space="preserve"
       transform="matrix(0,-0.26458333,0.26458333,0,1.1264583,89.47856)"
       id="text51845-1"
       style="font-size:13.3333px;line-height:1.25;font-family:'Noto Sans CJK TC';-inkscape-font-specification:'Noto Sans CJK TC';text-align:center;letter-spacing:0px;word-spacing:0px;white-space:pre;shape-inside:url(#rect51847-4)"
       x="92.812935"
       y="0"
       inkscape:label="notes_bottom_right"><tspan
         x="125.4256"
         y="341.75739"
         id="tspan122">右下角備註</tspan></text>
  </g>
  <g
     inkscape:groupmode="layer"
     id="layer3"
     inkscape:label="Layer 3"
     style="display:none">
    <path
       d="M 10.990544,100.13456 C 8.2875607,100.13421 6.0886969,97.934991 6.0883441,95.23236 L 6.0886969,5.0373149 c 0,-2.7029833 2.1988638,-4.90219992 4.9018471,-4.90219992 L 101.18629,0.1347622 c 2.70264,0 4.90185,2.1995694 4.90185,4.9025527 V 95.23236 c 0,2.702983 -2.19921,4.9022 -4.90185,4.9022 z"
       style="display:inline;fill:none;stroke:#000000;stroke-width:0.176;stroke-linecap:butt;stroke-linejoin:miter;stroke-miterlimit:22.926;stroke-dasharray:none;stroke-opacity:1"
       id="path1403"
       inkscape:label="outline" />
    <path
       d="m 22.509526,16.524049 c 0.289827,-0.289826 0.759754,-0.289801 1.049579,2.5e-5 0.289828,0.289826 0.289851,0.759753 2.5e-5,1.049579 -0.289826,0.289826 -0.759777,0.289826 -1.049604,0 -0.289826,-0.289826 -0.289826,-0.759778 0,-1.049604 z"
       style="display:inline;fill:#b2b2b2;fill-opacity:1;fill-rule:evenodd;stroke:#000000;stroke-width:0.05715;stroke-linecap:butt;stroke-linejoin:miter;stroke-dasharray:none;stroke-opacity:1"
       id="path144"
       inkscape:label="hole_1" />
    <path
       d="m 86.107072,79.085273 2.612037,2.612036 c 0.04255,0.03359 0.0838,0.07054 0.123551,0.110304 0.404661,0.404661 0.500463,0.968934 0.213229,1.256169 -0.287235,0.287233 -0.851533,0.191456 -1.256194,-0.213205 l -0.0066,0.0066 -2.728969,-2.728968 c -0.404685,-0.404685 -0.500438,-0.96896 -0.213204,-1.256193 0.287233,-0.287234 0.851482,-0.191455 1.256167,0.213229 z"
       style="display:inline;fill:#b2b2b2;fill-opacity:1;fill-rule:evenodd;stroke:#000000;stroke-width:0.05715;stroke-linecap:butt;stroke-linejoin:miter;stroke-dasharray:none;stroke-opacity:1"
       id="path172"
       inkscape:label="hole_2" />
  </g>
</svg>
